<svg width="40" height="40" viewBox="0 0 40 40" fill="none" xmlns="http://www.w3.org/2000/svg">
<path d="M26.5489 26.8448C25.6102 27.1221 24.5009 27.2501 23.1996 27.2501H16.7995C15.4982 27.2501 14.3889 27.1221 13.4502 26.8448C13.6849 24.0714 16.5329 21.8847 19.9996 21.8847C23.4662 21.8847 26.3142 24.0714 26.5489 26.8448Z" fill="white" stroke="#001FB9" stroke-width="2" stroke-linecap="round" stroke-linejoin="round"/>
<path d="M23.819 15.0687C23.819 17.1807 22.1123 18.898 20.0003 18.898C17.8883 18.898 16.1816 17.1807 16.1816 15.0687C16.1816 12.9567 17.8883 11.25 20.0003 11.25C22.1123 11.25 23.819 12.9567 23.819 15.0687Z" fill="#E5EEFE" stroke="#001FB9" stroke-width="2" stroke-linecap="round" stroke-linejoin="round"/>
<rect x="4" y="7.25" width="32.0001" height="24" rx="5.76001" stroke="#001FB9" stroke-width="2" stroke-linecap="round" stroke-linejoin="round"/>
<path d="M4 26.85H36.0001C36.0001 29.2801 34.0302 31.25 31.6001 31.25H8.4C5.96995 31.25 4 29.2801 4 26.85V26.85Z" fill="white" stroke="#001FB9" stroke-width="2" stroke-linecap="round" stroke-linejoin="round"/>
<path d="M20 31.25V34.45" stroke="#001FB9" stroke-width="1.92" stroke-linecap="round" stroke-linejoin="round"/>
<path d="M24.7998 35.25L15.1998 35.25" stroke="#001FB9" stroke-width="1.92" stroke-linecap="round" stroke-linejoin="round"/>
</svg>
