<svg width="40" height="40" viewBox="0 0 40 40" fill="none" xmlns="http://www.w3.org/2000/svg">
<path d="M21 32H24C25.1046 32 26 32.8954 26 34C26 35.1046 25.1046 36 24 36H21C19.8954 36 19 35.1046 19 34C19 32.8954 19.8954 32 21 32Z" fill="#E5EEFE"/>
<path d="M6 25V19C6 11.268 12.268 5 20 5V5C27.732 5 34 11.268 34 19V19V29.5C34 31.9853 31.9853 34 29.5 34H26M26 34V34C26 32.8954 25.1046 32 24 32H21C19.8954 32 19 32.8954 19 34V34C19 35.1046 19.8954 36 21 36H24C25.1046 36 26 35.1046 26 34V34Z" stroke="#001FB9" stroke-width="2" stroke-linecap="round"/>
<rect x="6" y="19" width="8" height="10" rx="3.75" fill="white" stroke="#001FB9" stroke-width="2"/>
<rect x="27" y="19" width="7" height="10" rx="3.5" fill="white" stroke="#001FB9" stroke-width="2"/>
</svg>
