<svg width="40" height="40" viewBox="0 0 40 40" fill="none" xmlns="http://www.w3.org/2000/svg">
<path d="M15.8326 33.8889H24.1659C31.1104 33.8889 33.8881 31.1111 33.8881 24.1667V15.8334C33.8881 8.88892 31.1104 6.11115 24.1659 6.11115H15.8326C8.88813 6.11115 6.11035 8.88892 6.11035 15.8334V24.1667C6.11035 31.1111 8.88813 33.8889 15.8326 33.8889Z" fill="#E5EEFE" stroke="#001FB9" stroke-width="2" stroke-linecap="round" stroke-linejoin="round"/>
<path d="M33.8881 14.5834V15.8334C33.8881 15.4007 33.8773 14.9841 33.8554 14.5834H6.14305C6.12114 14.9841 6.11035 15.4007 6.11035 15.8334V14.5834H6.14305C6.47273 8.55354 9.32087 6.11118 15.8326 6.11118H24.1659C30.6776 6.11118 33.5258 8.55354 33.8554 14.5834H33.8881Z" fill="white" stroke="#001FB9" stroke-width="2" stroke-linecap="round" stroke-linejoin="round"/>
<path d="M6.43066 14.4584L33.1251 14.4445" stroke="#001FB9" stroke-width="2" stroke-linecap="round" stroke-linejoin="round"/>
<path d="M15.8333 21.3889C14.9167 21.8472 14.1528 22.5278 13.5833 23.375C13.2639 23.8611 13.2639 24.4722 13.5833 24.9584C14.1528 25.8056 14.9167 26.4861 15.8333 26.9445" stroke="#001FB9" stroke-width="2" stroke-linecap="round" stroke-linejoin="round"/>
<path d="M24.458 21.3889C25.3747 21.8472 26.1386 22.5278 26.708 23.375C27.0275 23.8611 27.0275 24.4722 26.708 24.9584C26.1386 25.8056 25.3747 26.4861 24.458 26.9445" stroke="#001FB9" stroke-width="2" stroke-linecap="round" stroke-linejoin="round"/>
</svg>
