<svg width="40" height="40" viewBox="0 0 40 40" fill="none" xmlns="http://www.w3.org/2000/svg">
<path d="M28.4 12.6481L22.1 19.0023Z" fill="white"/>
<path d="M33.3054 7.71142C32.8736 7.27592 32.2317 7.12382 31.6504 7.31925L30.5803 7.67904C29.7961 7.94267 29.404 8.07449 29.1142 8.31773C28.8583 8.53254 28.6603 8.80804 28.5382 9.11907C28.4 9.47128 28.4 9.88492 28.4 10.7122V12.6481H30.2873C31.1188 12.6481 31.5345 12.6481 31.888 12.5088C32.2002 12.3858 32.4763 12.1862 32.6911 11.9284C32.9343 11.6365 33.0648 11.2418 33.3257 10.4523L33.6904 9.34881C33.8804 8.77404 33.7316 8.1413 33.3054 7.71142V7.71142Z" fill="white"/>
<path d="M11.7349 7.25519C11.2239 7.39083 10.9684 7.45865 10.7634 7.71031C10.6082 7.90076 10.5129 8.25193 10.5504 8.49469C10.6 8.81547 10.8298 9.04722 11.2893 9.51072L13.5161 11.7566C14.0705 12.3158 14.3477 12.5954 14.4516 12.9178C14.5429 13.2014 14.5429 13.5069 14.4516 13.7905C14.3477 14.1129 14.0705 14.3925 13.5161 14.9517L13.1839 15.2867C12.6295 15.8459 12.3523 16.1255 12.0326 16.2303C11.7514 16.3224 11.4486 16.3224 11.1674 16.2303C10.8477 16.1255 10.5705 15.8459 10.0161 15.2867L8.27945 13.5352C7.77189 13.0232 7.51811 12.7673 7.16331 12.7301C6.89815 12.7024 6.51919 12.8418 6.33525 13.0348C6.08914 13.293 6.06705 13.583 6.02288 14.1631C6.00772 14.3621 6 14.5632 6 14.7662C6 19.0554 9.44741 22.5324 13.7 22.5324C14.2127 22.5324 14.7137 22.4819 15.1983 22.3855C15.8789 22.2501 16.2192 22.1824 16.4255 22.2031C16.6449 22.2252 16.753 22.2583 16.9473 22.3632C17.1301 22.4619 17.3134 22.6468 17.6802 23.0167L27.7 33.1227C28.8598 34.2924 30.7402 34.2924 31.9 33.1227C33.0598 31.9529 33.0598 30.0563 31.9 28.8866L21.8802 18.7806C21.5134 18.4107 21.3301 18.2258 21.2323 18.0414C21.1283 17.8454 21.0954 17.7364 21.0735 17.5152C21.053 17.3071 21.1201 16.9639 21.2543 16.2774C21.3499 15.7886 21.4 15.2833 21.4 14.7662C21.4 10.477 17.9526 7 13.7 7C13.0209 7 12.3622 7.08868 11.7349 7.25519Z" fill="white"/>
<path d="M19.9999 25.3564L12.3 33.1225C11.1402 34.2923 9.25981 34.2923 8.10002 33.1225C6.94022 31.9528 6.94023 30.0562 8.10003 28.8864L14.4346 22.4975C14.883 22.4547 15.3202 22.3731 15.7429 22.2561C16.2876 22.1053 16.8851 22.2148 17.2845 22.6176L19.9999 25.3564Z" fill="white"/>
<path d="M28.4 12.6481L22.1 19.0023M28.4 12.6481H30.2873C31.1188 12.6481 31.5345 12.6481 31.888 12.5088C32.2002 12.3858 32.4763 12.1862 32.6911 11.9284C32.9343 11.6365 33.0648 11.2418 33.3257 10.4523L33.6904 9.34881C33.8804 8.77404 33.7316 8.1413 33.3054 7.71142V7.71142C32.8736 7.27592 32.2317 7.12382 31.6504 7.31925L30.5803 7.67904C29.7961 7.94267 29.404 8.07449 29.1142 8.31773C28.8583 8.53254 28.6603 8.80804 28.5382 9.11907C28.4 9.47128 28.4 9.88492 28.4 10.7122V12.6481ZM6 14.7662C6 14.5632 6.00772 14.3621 6.02288 14.1631C6.06705 13.583 6.08914 13.293 6.33525 13.0348C6.51919 12.8418 6.89815 12.7024 7.16331 12.7301C7.51811 12.7673 7.77189 13.0232 8.27945 13.5352L10.0161 15.2867C10.5705 15.8459 10.8477 16.1255 11.1674 16.2303C11.4486 16.3224 11.7514 16.3224 12.0326 16.2303C12.3523 16.1255 12.6295 15.8459 13.1839 15.2867L13.5161 14.9517C14.0705 14.3925 14.3477 14.1129 14.4516 13.7905C14.5429 13.5069 14.5429 13.2014 14.4516 12.9178C14.3477 12.5954 14.0705 12.3158 13.5161 11.7566L11.2893 9.51072C10.8298 9.04722 10.6 8.81547 10.5504 8.49469C10.5129 8.25193 10.6082 7.90076 10.7634 7.71031C10.9684 7.45865 11.2239 7.39083 11.7349 7.25519C12.3622 7.08868 13.0209 7 13.7 7C17.9526 7 21.4 10.477 21.4 14.7662C21.4 15.2833 21.3499 15.7886 21.2543 16.2774C21.1201 16.9639 21.053 17.3071 21.0735 17.5152C21.0954 17.7364 21.1283 17.8454 21.2323 18.0414C21.3301 18.2258 21.5134 18.4107 21.8802 18.7806L31.9 28.8866C33.0598 30.0563 33.0598 31.9529 31.9 33.1227C30.7402 34.2924 28.8598 34.2924 27.7 33.1227L17.6802 23.0167C17.3134 22.6468 17.1301 22.4619 16.9473 22.3632C16.753 22.2583 16.6449 22.2252 16.4255 22.2031C16.2192 22.1824 15.8789 22.2501 15.1983 22.3855C14.7137 22.4819 14.2127 22.5324 13.7 22.5324C9.44741 22.5324 6 19.0554 6 14.7662ZM19.9999 25.3564L12.3 33.1225C11.1402 34.2923 9.25981 34.2923 8.10002 33.1225C6.94022 31.9528 6.94023 30.0562 8.10003 28.8864L14.4346 22.4975C14.883 22.4547 15.3202 22.3731 15.7429 22.2561C16.2876 22.1053 16.8851 22.2148 17.2845 22.6176L19.9999 25.3564Z" stroke="#001FB9" stroke-width="2" stroke-linecap="round" stroke-linejoin="round"/>
<path d="M33.4074 26.246C32.9338 25.4246 33.2103 24.3769 34.0245 23.9076L33.6813 23.3124C32.3089 20.9314 31.3757 20.6762 29.0158 22.0366L23.1158 25.4375C20.7558 26.7979 20.509 27.7333 21.8815 30.1143L22.0531 30.4119C22.8672 29.9425 23.9123 30.2283 24.3859 31.0498C24.8594 31.8712 24.5829 32.9188 23.7687 33.3881L23.9403 33.6857C25.3128 36.0667 26.2459 36.3218 28.6059 34.9615L34.5058 31.5605C36.8658 30.2002 37.1127 29.2648 35.7401 26.8838C34.9259 27.3532 33.8809 27.0674 33.4074 26.246Z" fill="#E5EEFE" stroke="#001FB9" stroke-width="2" stroke-linecap="round" stroke-linejoin="round"/>
<path d="M25.3436 24.1593L30.8338 33.6832" stroke="#001FB9" stroke-width="2" stroke-linecap="round" stroke-linejoin="round" stroke-dasharray="3 4"/>
</svg>
