<svg width="40" height="40" viewBox="0 0 40 40" fill="none" xmlns="http://www.w3.org/2000/svg">
<path d="M15.8326 33.8888H24.1659C31.1104 33.8888 33.8881 31.111 33.8881 24.1666V15.8332C33.8881 8.8888 31.1104 6.11102 24.1659 6.11102H15.8326C8.88813 6.11102 6.11035 8.8888 6.11035 15.8332V24.1666C6.11035 31.111 8.88813 33.8888 15.8326 33.8888Z" stroke="#001FB9" stroke-width="2" stroke-linecap="round" stroke-linejoin="round"/>
<path d="M24.9561 29.0277V23.611" stroke="#001FB9" stroke-width="2" stroke-miterlimit="10" stroke-linecap="round" stroke-linejoin="round"/>
<path d="M24.9561 13.6805V10.9722" stroke="#001FB9" stroke-width="2" stroke-miterlimit="10" stroke-linecap="round" stroke-linejoin="round"/>
<path d="M24.9578 20.9027C26.9522 20.9027 28.5689 19.286 28.5689 17.2916C28.5689 15.2972 26.9522 13.6805 24.9578 13.6805C22.9634 13.6805 21.3467 15.2972 21.3467 17.2916C21.3467 19.286 22.9634 20.9027 24.9578 20.9027Z" fill="#E5EEFE" stroke="#001FB9" stroke-width="2" stroke-miterlimit="10" stroke-linecap="round" stroke-linejoin="round"/>
<path d="M15.041 29.0277V26.3193" stroke="#001FB9" stroke-width="2" stroke-miterlimit="10" stroke-linecap="round" stroke-linejoin="round"/>
<path d="M15.041 16.3888V10.9722" stroke="#001FB9" stroke-width="2" stroke-miterlimit="10" stroke-linecap="round" stroke-linejoin="round"/>
<path d="M15.0408 26.3194C17.0352 26.3194 18.6519 24.7026 18.6519 22.7083C18.6519 20.7139 17.0352 19.0972 15.0408 19.0972C13.0464 19.0972 11.4297 20.7139 11.4297 22.7083C11.4297 24.7026 13.0464 26.3194 15.0408 26.3194Z" fill="#E5EEFE" stroke="#001FB9" stroke-width="2" stroke-miterlimit="10" stroke-linecap="round" stroke-linejoin="round"/>
</svg>
