<svg width="40" height="40" viewBox="0 0 40 40" fill="none" xmlns="http://www.w3.org/2000/svg">
<path d="M9.70062 17.1328L11.5 16.2277L9.71757 15.3312C7.87732 14.4057 6.9572 13.9429 6.66306 13.3189C6.40709 12.7758 6.40859 12.1466 6.66713 11.6048C6.96423 10.9822 7.88654 10.5238 9.73116 9.60691L14.7272 7.12373C16.2942 6.34485 17.0778 5.95541 17.8992 5.8021C18.6268 5.66631 19.3732 5.66631 20.1008 5.8021C20.9222 5.95541 21.7058 6.34485 23.2728 7.12373L28.2688 9.60691C30.1135 10.5238 31.0358 10.9822 31.3329 11.6048C31.5914 12.1466 31.5929 12.7758 31.3369 13.3189C31.0428 13.9429 30.1227 14.4057 28.2824 15.3312L26.5 16.2277L28.2994 17.1328C30.1349 18.056 31.0527 18.5176 31.3469 19.1407C31.603 19.6829 31.6022 20.3114 31.3449 20.8531C31.0492 21.4754 30.1303 21.9348 28.2926 22.8537L28.2926 22.8537L26.5 23.75L28.4166 24.6484C30.3616 25.5601 31.3341 26.016 31.644 26.6467C31.9135 27.1952 31.9174 27.8367 31.6548 28.3884C31.3527 29.0229 30.3858 29.4907 28.4522 30.4264L23.2381 32.9493C21.6829 33.7018 20.9054 34.078 20.0924 34.2235C19.3723 34.3524 18.6346 34.3485 17.9159 34.212C17.1045 34.0579 16.331 33.6734 14.7839 32.9045L9.71425 30.3847C7.87433 29.4702 6.95437 29.0129 6.65717 28.3913C6.39853 27.8503 6.3963 27.2217 6.65108 26.6789C6.94384 26.0551 7.86053 25.5914 9.6939 24.6638L11.5 23.75L9.70741 22.8537C7.86969 21.9349 6.95082 21.4754 6.65511 20.8531C6.39775 20.3114 6.39701 19.6829 6.65308 19.1407C6.94732 18.5176 7.86508 18.056 9.70062 17.1328Z" fill="white"/>
<path d="M11.5 16.2277L9.70062 17.1328C7.86508 18.056 6.94732 18.5176 6.65308 19.1407C6.39701 19.6829 6.39775 20.3114 6.65511 20.8531C6.95082 21.4754 7.86969 21.9349 9.70741 22.8537L11.5 23.75M26.5 16.2277L28.2994 17.1328C30.1349 18.056 31.0527 18.5176 31.3469 19.1407C31.603 19.6829 31.6022 20.3114 31.3449 20.8531C31.0492 21.4754 30.1303 21.9349 28.2926 22.8537L26.5 23.75M11.5 23.75L9.6939 24.6638C7.86053 25.5914 6.94384 26.0551 6.65108 26.6789C6.3963 27.2217 6.39853 27.8503 6.65717 28.3913C6.95437 29.0129 7.87433 29.4702 9.71425 30.3847L14.7839 32.9045C16.331 33.6734 17.1045 34.0579 17.9159 34.212C18.6346 34.3485 19.3723 34.3524 20.0924 34.2235C20.9054 34.078 21.6829 33.7018 23.2381 32.9493L28.4522 30.4264C30.3858 29.4907 31.3527 29.0229 31.6548 28.3884C31.9174 27.8367 31.9135 27.1952 31.644 26.6467C31.3341 26.016 30.3616 25.5601 28.4166 24.6484L26.5 23.75M11.5 23.75L14.7068 25.3534C16.2809 26.1405 17.068 26.534 17.8936 26.6889C18.6248 26.8261 19.3752 26.8261 20.1064 26.6889C20.932 26.534 21.7191 26.1405 23.2932 25.3534L26.5 23.75M9.73116 9.60691L14.7272 7.12373C16.2942 6.34485 17.0778 5.95541 17.8992 5.8021C18.6268 5.66631 19.3732 5.66631 20.1008 5.8021C20.9222 5.95541 21.7058 6.34485 23.2728 7.12373L28.2688 9.60691C30.1135 10.5238 31.0358 10.9822 31.3329 11.6048C31.5914 12.1466 31.5929 12.7758 31.3369 13.3189C31.0428 13.9429 30.1227 14.4057 28.2824 15.3312L23.3136 17.8304C21.7323 18.6257 20.9417 19.0234 20.112 19.1799C19.3771 19.3185 18.6229 19.3185 17.888 19.1799C17.0583 19.0234 16.2677 18.6257 14.6864 17.8304L9.71757 15.3312C7.87732 14.4057 6.9572 13.9429 6.66306 13.3189C6.40709 12.7758 6.40859 12.1466 6.66713 11.6048C6.96423 10.9822 7.88654 10.5238 9.73116 9.60691Z" stroke="#001FB9" stroke-width="2" stroke-linecap="round" stroke-linejoin="round"/>
<path d="M22.6641 28.0415C22.419 27.7964 22.2965 27.6738 22.2088 27.5308C22.1311 27.404 22.0739 27.2658 22.0392 27.1212C22 26.9581 22 26.7848 22 26.4381L22 23.2675C22 22.4738 22 22.077 22.1545 21.7738C22.2903 21.5071 22.5071 21.2903 22.7738 21.1545C23.077 21 23.4738 21 24.2675 21L27.4381 21C27.7848 21 27.9581 21 28.1212 21.0392C28.2658 21.0739 28.404 21.1311 28.5308 21.2088C28.6738 21.2965 28.7964 21.419 29.0415 21.6641L34.4755 27.0981C35.3173 27.94 35.7382 28.3609 35.896 28.8463C36.0347 29.2732 36.0347 29.7331 35.896 30.1601C35.7382 30.6454 35.3173 31.0664 34.4755 31.9082L32.9082 33.4755C32.0664 34.3173 31.6454 34.7382 31.1601 34.896C30.7331 35.0347 30.2732 35.0347 29.8463 34.896C29.3609 34.7382 28.94 34.3173 28.0981 33.4755L22.6641 28.0415Z" fill="#E5EEFE"/>
<path d="M26.6059 25.2516C26.6059 25.4473 26.4473 25.6059 26.2516 25.6059C26.0559 25.6059 25.8973 25.4473 25.8973 25.2516C25.8973 25.0559 26.0559 24.8973 26.2516 24.8973C26.4473 24.8973 26.6059 25.0559 26.6059 25.2516Z" fill="#E5EEFE"/>
<path d="M26.2516 25.2516H26.2587M22 23.2675L22 26.4381C22 26.7848 22 26.9581 22.0392 27.1212C22.0739 27.2658 22.1311 27.404 22.2088 27.5308C22.2965 27.6738 22.419 27.7964 22.6641 28.0415L28.0981 33.4755C28.94 34.3173 29.3609 34.7382 29.8463 34.896C30.2732 35.0347 30.7331 35.0347 31.1601 34.896C31.6454 34.7382 32.0664 34.3173 32.9082 33.4755L34.4755 31.9082C35.3173 31.0664 35.7382 30.6454 35.896 30.1601C36.0347 29.7331 36.0347 29.2732 35.896 28.8463C35.7382 28.3609 35.3173 27.94 34.4755 27.0981L29.0415 21.6641C28.7964 21.419 28.6738 21.2965 28.5308 21.2088C28.404 21.1311 28.2658 21.0739 28.1212 21.0392C27.9581 21 27.7848 21 27.4381 21L24.2675 21C23.4738 21 23.077 21 22.7738 21.1545C22.5071 21.2903 22.2903 21.5071 22.1545 21.7738C22 22.077 22 22.4738 22 23.2675ZM26.6059 25.2516C26.6059 25.4473 26.4473 25.6059 26.2516 25.6059C26.0559 25.6059 25.8973 25.4473 25.8973 25.2516C25.8973 25.0559 26.0559 24.8973 26.2516 24.8973C26.4473 24.8973 26.6059 25.0559 26.6059 25.2516Z" stroke="#001FB9" stroke-width="2" stroke-linecap="round" stroke-linejoin="round"/>
</svg>
