<svg width="40" height="40" viewBox="0 0 40 40" fill="none" xmlns="http://www.w3.org/2000/svg">
<path d="M17.3327 32.0001C17.3327 33.3808 18.5266 34.5001 19.9993 34.5001C21.4721 34.5001 22.666 33.3808 22.666 32.0001C22.666 30.6193 21.4721 29.5001 19.9993 29.5001C18.5266 29.5001 17.3327 30.6193 17.3327 32.0001Z" fill="#E5EEFE" stroke="#001FB9" stroke-width="2" stroke-linecap="round" stroke-linejoin="round"/>
<path d="M25.3327 32.0001C25.3327 33.3808 26.5266 34.5001 27.9993 34.5001C29.4721 34.5001 30.666 33.3808 30.666 32.0001C30.666 30.6193 29.4721 29.5001 27.9993 29.5001C26.5266 29.5001 25.3327 30.6193 25.3327 32.0001Z" fill="#E5EEFE" stroke="#001FB9" stroke-width="2" stroke-linecap="round" stroke-linejoin="round"/>
<path d="M9.33366 32.0001C9.33366 33.3808 10.5276 34.5001 12.0003 34.5001C13.4731 34.5001 14.667 33.3808 14.667 32.0001C14.667 30.6193 13.4731 29.5001 12.0003 29.5001C10.5276 29.5001 9.33366 30.6193 9.33366 32.0001Z" fill="#E5EEFE" stroke="#001FB9" stroke-width="2" stroke-linecap="round" stroke-linejoin="round"/>
<path d="M20 19.5001L20 29.5001" stroke="#001FB9" stroke-width="2" stroke-linecap="round" stroke-linejoin="round"/>
<path d="M28 29.5001L28 25.9287C28 24.1429 27 23.2501 25 23.2501L15 23.2501C13 23.2501 12 24.1429 12 25.9287L12 29.5001" stroke="#001FB9" stroke-width="2" stroke-linecap="round" stroke-linejoin="round"/>
<path d="M20 19.5852C22.2091 19.5852 24 17.7943 24 15.5852C24 13.376 22.2091 11.5852 20 11.5852C17.7909 11.5852 16 13.376 16 15.5852C16 17.7943 17.7909 19.5852 20 19.5852Z" fill="#E5EEFE" stroke="#001FB9" stroke-width="2" stroke-miterlimit="10" stroke-linecap="round" stroke-linejoin="round"/>
<path d="M30.8137 19.2919C32.2137 19.2919 33.347 18.1452 33.347 16.7585V14.4119C33.347 13.0119 32.2003 11.8785 30.8137 11.8785C28.4003 11.8785 27.4137 10.1719 28.627 8.07854C29.3203 6.87854 28.907 5.31854 27.6937 4.6252L25.387 3.3052C24.3337 2.67854 22.9737 3.05187 22.347 4.1052L22.2003 4.35854C20.987 6.45187 19.0137 6.45187 17.8137 4.35854L17.667 4.1052C17.0403 3.05187 15.6803 2.67854 14.627 3.3052L12.3203 4.6252C11.107 5.31854 10.6937 6.87854 11.387 8.07854C12.6003 10.1719 11.6137 11.8785 9.20033 11.8785C7.80033 11.8785 6.66699 13.0252 6.66699 14.4119V16.7585C6.66699 18.1452 7.80033 19.2919 9.20033 19.2919" stroke="#001FB9" stroke-width="2" stroke-miterlimit="10" stroke-linecap="round" stroke-linejoin="round"/>
</svg>
