<svg width="40" height="42" viewBox="0 0 40 42" fill="none" xmlns="http://www.w3.org/2000/svg">
<path d="M7.30233 22.281C7.30233 19.3194 9.70316 16.9186 12.6647 16.9186H27.3353C30.2968 16.9186 32.6977 19.3194 32.6977 22.281V31.0365C32.6977 33.9981 30.2968 36.3989 27.3353 36.3989H26.3488H23.1744L20 40.5L16.8256 36.3989H13.6512H12.6647C9.70316 36.3989 7.30233 33.9981 7.30233 31.0365V22.281Z" stroke="#001FB9" stroke-width="2" stroke-linecap="round" stroke-linejoin="round"/>
<path d="M20 19.6395V13.2907" stroke="#001FB9" stroke-width="2" stroke-linecap="round" stroke-linejoin="round"/>
<path d="M20 13.2907L17.2791 10.5698L20 7.84884L22.7209 10.5698L20 13.2907Z" stroke="#001FB9" stroke-width="2" stroke-linecap="round" stroke-linejoin="round"/>
<path d="M20 3.31395V1.5" stroke="#001FB9" stroke-width="2" stroke-linecap="round" stroke-linejoin="round"/>
<path d="M27.2558 9.66279L29.0698 9.66279" stroke="#001FB9" stroke-width="2" stroke-linecap="round" stroke-linejoin="round"/>
<path d="M10.9302 9.66279L12.7442 9.66279" stroke="#001FB9" stroke-width="2" stroke-linecap="round" stroke-linejoin="round"/>
<path d="M25.1308 4.53218L26.4135 3.24952" stroke="#001FB9" stroke-width="2" stroke-linecap="round" stroke-linejoin="round"/>
<path d="M13.5872 3.24938L14.8699 4.53204" stroke="#001FB9" stroke-width="2" stroke-linecap="round" stroke-linejoin="round"/>
<rect x="12.7442" y="24.1744" width="5.44186" height="5.44186" rx="1.78747" stroke="#001FB9" stroke-width="2" stroke-linecap="round" stroke-linejoin="round"/>
<rect x="21.814" y="24.1744" width="5.44186" height="5.44186" rx="1.78747" stroke="#001FB9" stroke-width="2" stroke-linecap="round" stroke-linejoin="round"/>
</svg>
