<svg width="41" height="41" viewBox="0 0 41 41" fill="none" xmlns="http://www.w3.org/2000/svg">
<path d="M5 9V3C5 1.89543 5.89543 1 7 1H33C34.1046 1 35 1.89543 35 3V22.7088M5 11V18M5 20V27M5 29V33C5 34.1046 5.89543 35 7 35H23.5239" stroke="#001FB9" stroke-width="2" stroke-linejoin="round"/>
<path d="M5 9H1" stroke="#001FB9" stroke-width="2" stroke-linecap="round" stroke-linejoin="round"/>
<path d="M5 18H1" stroke="#001FB9" stroke-width="2" stroke-linecap="round" stroke-linejoin="round"/>
<path d="M5 27H1" stroke="#001FB9" stroke-width="2" stroke-linecap="round" stroke-linejoin="round"/>
<circle cx="8" cy="8" r="8" transform="matrix(-1 0 0 1 28 7)" stroke="#001FB9" stroke-width="2"/>
<circle cx="2" cy="2" r="2" transform="matrix(-1 0 0 1 22 11)" stroke="#001FB9" stroke-width="2"/>
<path d="M16.3045 18.4693C16.5055 17.984 16.8001 17.543 17.1716 17.1716C17.543 16.8001 17.984 16.5055 18.4693 16.3045C18.9546 16.1035 19.4747 16 20 16C20.5253 16 21.0454 16.1035 21.5307 16.3045C22.016 16.5055 22.457 16.8001 22.8284 17.1716C23.1999 17.543 23.4945 17.984 23.6955 18.4693" stroke="#001FB9" stroke-width="2" stroke-linecap="round"/>
<path d="M25.0639 33.227V31.8369C25.0639 31.0149 25.6992 30.3423 26.4756 30.3423C27.8309 30.3423 28.3815 29.3259 27.7038 28.0853C27.3086 27.3679 27.5485 26.4412 28.2262 26.0377L29.5109 25.2455C30.1038 24.8718 30.8661 25.096 31.219 25.7238L31.3037 25.8732C31.9814 27.1138 33.0825 27.1138 33.7602 25.8732L33.8449 25.7238C34.1978 25.096 34.9601 24.8868 35.5531 25.2455L36.8377 26.0377C37.5154 26.4562 37.7554 27.3679 37.3601 28.0853C36.6824 29.3259 37.233 30.3423 38.5883 30.3423C39.3647 30.3423 40 31.0149 40 31.8369V33.227C40 34.049 39.3647 34.7216 38.5883 34.7216C37.233 34.7216 36.6824 35.738 37.3601 36.9786C37.7554 37.696 37.5154 38.6227 36.8377 39.0262L35.5531 39.8184C34.9601 40.1921 34.1978 39.9679 33.8449 39.3401L33.7602 39.1907C33.0825 37.9501 31.9814 37.9501 31.3037 39.1907L31.219 39.3401C30.8661 39.9679 30.1038 40.1771 29.5109 39.8184L28.2262 39.0262C27.5485 38.6077 27.3086 37.696 27.7038 36.9786C28.3815 35.738 27.8309 34.7216 26.4756 34.7216C25.6992 34.7366 25.0639 34.064 25.0639 33.227Z" fill="white" stroke="#001FB9" stroke-width="2" stroke-miterlimit="10" stroke-linecap="round" stroke-linejoin="round"/>
<path d="M32.532 35.0213C33.9068 35.0213 35.0213 33.9068 35.0213 32.532C35.0213 31.1571 33.9068 30.0426 32.532 30.0426C31.1571 30.0426 30.0426 31.1571 30.0426 32.532C30.0426 33.9068 31.1571 35.0213 32.532 35.0213Z" fill="#E5EEFE" stroke="#001FB9" stroke-width="2" stroke-miterlimit="10" stroke-linecap="round" stroke-linejoin="round"/>
</svg>
