<svg width="40" height="40" viewBox="0 0 40 40" fill="none" xmlns="http://www.w3.org/2000/svg">
<path d="M25 17V18H23C21.3431 18 20 19.3431 20 21C20 22.6569 21.3431 24 23 24H25V28C25 30.7614 22.7614 33 20 33H17V31C17 29.3431 15.6569 28 14 28C12.3431 28 11 29.3431 11 31V33H9C6.23858 33 4 30.7614 4 28V25H6C7.65685 25 9 23.6569 9 22C9 20.3431 7.65685 19 6 19H4V17C4 14.2386 6.23858 12 9 12H11V10C11 8.34315 12.3431 7 14 7C15.6569 7 17 8.34315 17 10V12H20C22.7614 12 25 14.2386 25 17Z" fill="white" stroke="#001FB9" stroke-width="2" stroke-linecap="round" stroke-linejoin="round"/>
<path d="M30 27H32C34.2091 27 36 25.2091 36 23V20H34C32.8954 20 32 19.1046 32 18C32 16.8954 32.8954 16 34 16H36V15C36 12.7909 34.2091 11 32 11H30V9.5C30 8.11929 28.8807 7 27.5 7C26.1193 7 25 8.11929 25 9.5V11H23C20.7909 11 19 12.7909 19 15V15.6667C19 15.8508 18.8508 16 18.6667 16H17.5C16.1193 16 15 17.1193 15 18.5C15 19.8807 16.1193 21 17.5 21H18.6667C18.8508 21 19 21.1492 19 21.3333V23C19 25.2091 20.7909 27 23 27H25V25.5C25 24.1193 26.1193 23 27.5 23C28.8807 23 30 24.1193 30 25.5V27Z" fill="#E5EEFE" stroke="#001FB9" stroke-width="2" stroke-linecap="round" stroke-linejoin="round"/>
</svg>
