<svg width="40" height="40" viewBox="0 0 40 40" fill="none" xmlns="http://www.w3.org/2000/svg">
<path d="M26.7539 30.375V14.25H8.00391V30.375H26.7539Z" fill="#80A0F1"/>
<path d="M26.7539 30V14.25H8.00391V30" stroke="#001FB9" stroke-linecap="round"/>
<path d="M5.75391 12.9V13.35C5.75391 13.847 6.15685 14.25 6.65391 14.25H28.1039C28.601 14.25 29.0039 13.847 29.0039 13.35V12.9C29.0039 12.403 28.601 12 28.1039 12L6.65391 12C6.15685 12 5.75391 12.4029 5.75391 12.9Z" fill="#4C6FE4" stroke="#001FB9" stroke-linecap="round"/>
<path d="M8.00391 9.90001V12H26.7539V9.90012C26.7539 9.40307 26.351 9.00012 25.8539 9.00012L8.90391 9.00001C8.40685 9 8.00391 9.40295 8.00391 9.90001Z" fill="#80A0F1" stroke="#001FB9" stroke-linecap="round"/>
<path d="M15.5789 19.5H13.1789C12.1848 19.5 11.3789 20.3059 11.3789 21.3V30.375H17.3789V21.3C17.3789 20.3059 16.573 19.5 15.5789 19.5Z" fill="white"/>
<path d="M17.4253 29.8071V21.3214C17.4253 20.3273 16.6194 19.5214 15.6253 19.5214H13.0539C12.0598 19.5214 11.2539 20.3273 11.2539 21.3214V29.8071" stroke="#001FB9" stroke-linecap="round"/>
<path d="M20 21.1285C20 20.3829 20.6044 19.7785 21.35 19.7785H22.7643C23.5099 19.7785 24.1143 20.3829 24.1143 21.1285V23.5713C24.1143 24.3169 23.5099 24.9213 22.7643 24.9213H21.35C20.6044 24.9213 20 24.3169 20 23.5713V21.1285Z" fill="white" stroke="#001FB9"/>
<path d="M29.1974 26.4673C29.1003 26.1759 29.3172 25.875 29.6243 25.875H34.3757C34.6828 25.875 34.8997 26.1759 34.8026 26.4673L33.5 30.375H30.5L29.1974 26.4673Z" fill="#4C6FE4" stroke="#001FB9" stroke-linecap="round"/>
<path d="M31.9961 24.4865C31.9961 23.3894 32.8855 22.5 33.9826 22.5C34.3352 22.5 34.6211 22.7859 34.6211 23.1385C34.6211 24.2356 33.7317 25.125 32.6346 25.125C32.282 25.125 31.9961 24.8391 31.9961 24.4865Z" fill="#8BD48B"/>
<path d="M31.6289 24.4865C31.6289 23.3894 30.7395 22.5 29.6424 22.5C29.2898 22.5 29.0039 22.7859 29.0039 23.1385C29.0039 24.2356 29.8933 25.125 30.9904 25.125C31.343 25.125 31.6289 24.8391 31.6289 24.4865Z" fill="#8BD48B"/>
<path d="M31.25 22.6875C30.6287 22.0661 30.6287 21.0588 31.25 20.4375C31.5607 20.1268 32.0644 20.1268 32.375 20.4375C32.9964 21.0588 32.9964 22.0661 32.375 22.6875C32.0644 22.9981 31.5607 22.9981 31.25 22.6875Z" fill="#8BD48B"/>
<path d="M2 30.375H38" stroke="#001FB9" stroke-linecap="round"/>
</svg>
