<svg width="40" height="40" viewBox="0 0 40 40" fill="none" xmlns="http://www.w3.org/2000/svg">
<g clip-path="url(#clip0_1769_12595)">
<path d="M15.8316 33.8889H24.1649C31.1094 33.8889 33.8872 31.1111 33.8872 24.1666V15.8333C33.8872 8.88886 31.1094 6.11108 24.1649 6.11108H15.8316C8.88715 6.11108 6.10938 8.88886 6.10938 15.8333V24.1666C6.10938 31.1111 8.88715 33.8889 15.8316 33.8889Z" fill="#E5EEFE" stroke="#001FB9" stroke-width="2" stroke-linecap="round" stroke-linejoin="round"/>
<path d="M33.8872 14.5834V15.8334C33.8872 15.4007 33.8764 14.9841 33.8545 14.5834H6.14207C6.12016 14.9841 6.10938 15.4007 6.10938 15.8334V14.5834H6.14207C6.47175 8.55357 9.3199 6.11121 15.8316 6.11121H24.1649C30.6766 6.11121 33.5248 8.55357 33.8545 14.5834H33.8872Z" fill="white"/>
<path d="M33.8872 14.5834V15.8334C33.8872 8.88898 31.1094 6.11121 24.1649 6.11121H15.8316C8.88715 6.11121 6.10938 8.88898 6.10938 15.8334V14.5834H33.8872Z" stroke="#001FB9" stroke-width="2" stroke-linecap="round" stroke-linejoin="round"/>
<path d="M6.42969 14.4583L33.1241 14.4445" stroke="#001FB9" stroke-width="2" stroke-linecap="round" stroke-linejoin="round"/>
<path d="M15.8314 21.3889C14.9147 21.8472 14.1508 22.5278 13.5814 23.375C13.2619 23.8611 13.2619 24.4722 13.5814 24.9584C14.1508 25.8056 14.9147 26.4861 15.8314 26.9445" stroke="#001FB9" stroke-width="2" stroke-linecap="round" stroke-linejoin="round"/>
<path d="M24.457 21.3889C25.3737 21.8472 26.1376 22.5278 26.707 23.375C27.0265 23.8611 27.0265 24.4722 26.707 24.9584C26.1376 25.8056 25.3737 26.4861 24.457 26.9445" stroke="#001FB9" stroke-width="2" stroke-linecap="round" stroke-linejoin="round"/>
</g>
<defs>
<clipPath id="clip0_1769_12595">
<rect width="40" height="40" fill="white"/>
</clipPath>
</defs>
</svg>
