<svg width="40" height="40" viewBox="0 0 40 40" fill="none" xmlns="http://www.w3.org/2000/svg">
<path d="M12.998 18.3041H20.2836" stroke="#001FB9" stroke-width="2" stroke-linecap="round" stroke-linejoin="round"/>
<path d="M31.4787 26.3817L26.0683 31.7921C25.8597 32.0007 25.6641 32.4049 25.6119 32.6917L25.3121 34.7646C25.2078 35.5078 25.7293 36.0423 26.4725 35.925L28.5453 35.6251C28.8322 35.586 29.2363 35.3775 29.4449 35.1689L34.8555 29.7583C35.7811 28.8327 36.2244 27.7376 34.8555 26.3687C33.4996 25.0128 32.4174 25.443 31.4787 26.3817Z" fill="#E5EEFE" stroke="#001FB9" stroke-width="2" stroke-linecap="round" stroke-linejoin="round"/>
<path d="M30.709 27.1509C31.1653 28.7936 32.456 30.0712 34.0987 30.5406Z" fill="white"/>
<path d="M30.709 27.1509C31.1653 28.7936 32.456 30.0712 34.0987 30.5406" stroke="#001FB9" stroke-width="2" stroke-linecap="round" stroke-linejoin="round"/>
<path d="M21.0084 35.2506H17.2687C10.75 35.2506 8.14258 32.6431 8.14258 26.1244V14.185C8.14258 7.66631 10.75 5.05884 17.2687 5.05884H23.4443C29.963 5.05884 32.5704 7.66631 32.5704 14.185V21.5614" stroke="#001FB9" stroke-width="2" stroke-linecap="round" stroke-linejoin="round"/>
<path d="M27.5291 18.2004H25.1172" stroke="#001FB9" stroke-width="2.35294" stroke-linecap="round" stroke-linejoin="round"/>
<path d="M23.6188 13.2985H20.3203" stroke="#001FB9" stroke-width="2" stroke-linecap="round" stroke-linejoin="round"/>
<path d="M24.9225 23.311H20.3203" stroke="#001FB9" stroke-width="2" stroke-linecap="round" stroke-linejoin="round"/>
<path d="M16.7969 13.2985H13.1855" stroke="#001FB9" stroke-width="2" stroke-linecap="round" stroke-linejoin="round"/>
<path d="M16.7969 23.311H13.1855" stroke="#001FB9" stroke-width="2" stroke-linecap="round" stroke-linejoin="round"/>
</svg>
