<svg width="40" height="40" viewBox="0 0 40 40" fill="none" xmlns="http://www.w3.org/2000/svg">
<path d="M21.8194 4.54377L17.7675 5.42738C17.4095 5.50544 17.1543 5.82233 17.1543 6.1887V8.07791H22.7647V5.3051C22.7647 4.80786 22.3053 4.43783 21.8194 4.54377Z" fill="#4C6FE4" stroke="#001FB9" stroke-linecap="round"/>
<path d="M19.4941 2L19.4941 4.89285" stroke="#001FB9" stroke-linecap="round"/>
<path d="M11.5469 17.4286L11.5469 20.3215" stroke="#001FB9" stroke-linecap="round"/>
<path d="M15.2876 19.2986L9.7355 21.459C9.13663 21.692 8.74219 22.2688 8.74219 22.9114V37.9999H15.2876V19.2986Z" fill="#80A0F1" stroke="#001FB9" stroke-linecap="round"/>
<path d="M24.6374 14.6234H30.092C30.9527 14.6234 31.6504 15.3211 31.6504 16.1818V38H24.6374V14.6234Z" fill="#80A0F1" stroke="#001FB9" stroke-linecap="round"/>
<path d="M23.0793 8.07794H16.8455C15.9848 8.07794 15.2871 8.77568 15.2871 9.63638V38H24.6378V9.63638C24.6378 8.77568 23.94 8.07794 23.0793 8.07794Z" fill="#4C6FE4" stroke="#001FB9" stroke-linecap="round"/>
<path d="M24.6373 11.3507H19.1308C18.557 11.3507 18.0918 11.8158 18.0918 12.3896V38H24.6373V11.3507Z" fill="#FDFCFF" stroke="#001FB9" stroke-linecap="round"/>
<path d="M19.959 14.6234H22.7642" stroke="#001FB9" stroke-linecap="round"/>
<path d="M19.959 18.3636H22.7642" stroke="#001FB9" stroke-linecap="round"/>
<path d="M27.9082 18.3636H31.6485" stroke="#001FB9" stroke-linecap="round"/>
<path d="M19.959 22.1039H22.7642" stroke="#001FB9" stroke-linecap="round"/>
<path d="M27.9082 22.1039H31.6485" stroke="#001FB9" stroke-linecap="round"/>
<path d="M19.959 25.8441H22.7642" stroke="#001FB9" stroke-linecap="round"/>
<path d="M27.9082 25.3766H31.6485" stroke="#001FB9" stroke-linecap="round"/>
<path d="M8.74219 24.9091H12.0149" stroke="#001FB9" stroke-linecap="round"/>
<path d="M19.959 29.5844H22.7642" stroke="#001FB9" stroke-linecap="round"/>
<path d="M27.9082 29.1169H31.6485" stroke="#001FB9" stroke-linecap="round"/>
<path d="M8.74219 27.7143H12.0149" stroke="#001FB9" stroke-linecap="round"/>
<path d="M19.959 33.3247H22.7642" stroke="#001FB9" stroke-linecap="round"/>
<path d="M27.9082 32.3896H31.6485" stroke="#001FB9" stroke-linecap="round"/>
<path d="M8.74219 30.5195H12.0149" stroke="#001FB9" stroke-linecap="round"/>
<path d="M8.74219 33.3247H12.0149" stroke="#001FB9" stroke-linecap="round"/>
<path d="M5 38H35.8571" stroke="#001FB9" stroke-linecap="round"/>
</svg>
