<svg width="40" height="40" viewBox="0 0 40 40" fill="none" xmlns="http://www.w3.org/2000/svg">
<path d="M34 13V19V25C34 29.4183 30.4183 33 26 33H12C7.58172 33 4 29.4183 4 25V19V13C4 8.58172 7.58172 5 12 5H26C30.4183 5 34 8.58172 34 13Z" fill="white"/>
<path d="M4 19H10C12.2091 19 13.9318 21.0474 15.5164 22.5867C16.4168 23.4614 17.6455 24 19 24C20.3545 24 21.5832 23.4614 22.4836 22.5867C24.0682 21.0474 25.7909 19 28 19H34M4 25V13C4 8.58172 7.58172 5 12 5H26C30.4183 5 34 8.58172 34 13V25C34 29.4183 30.4183 33 26 33H12C7.58172 33 4 29.4183 4 25Z" stroke="#001FB9" stroke-width="2" stroke-linejoin="round"/>
<path d="M19 18V10M19 18L23 14M19 18L15 14" stroke="#001FB9" stroke-width="2" stroke-linecap="round" stroke-linejoin="round"/>
<path d="M29.3333 24.25V27.9C29.3333 27.9 22 29.95 22 35.9C24.6667 33.1 29.3333 32.1 29.3333 32.1V35.75C29.3333 36.2014 29.8841 36.4217 30.1954 36.0948L36 30L30.1954 23.9052C29.8841 23.5783 29.3333 23.7986 29.3333 24.25Z" fill="#E5EEFE" stroke="#001FB9" stroke-width="2" stroke-linecap="round" stroke-linejoin="round"/>
</svg>
