<svg width="40" height="40" viewBox="0 0 40 40" fill="none" xmlns="http://www.w3.org/2000/svg">
<path d="M31.665 19.2961C31.2538 17.8622 32.0839 16.3648 33.5177 15.9536L33.2198 14.9146C32.028 10.7584 30.691 10.0173 26.5349 11.2091L16.1444 14.1885C11.9883 15.3802 11.2472 16.7172 12.4389 20.8734L12.5879 21.3929C14.0218 20.9818 15.5192 21.8118 15.9304 23.2457C16.3415 24.6796 15.5115 26.177 14.0776 26.5881L14.2266 27.1077C15.4183 31.2638 16.7553 32.0049 20.9115 30.8132L31.3019 27.8338C35.4581 26.642 36.1992 25.305 35.0074 21.1488C33.5736 21.56 32.0761 20.73 31.665 19.2961Z" fill="#E5EEFE" stroke="#001FB9" stroke-width="2" stroke-linecap="round" stroke-linejoin="round"/>
<path d="M19.2617 13.2947L24.0288 29.9194" stroke="#001FB9" stroke-width="2" stroke-linecap="round" stroke-linejoin="round" stroke-dasharray="3.12 3.12"/>
<g clip-path="url(#clip0_1572_14849)">
<path d="M24.8138 16.4264C24.1834 15.0745 24.769 13.4656 26.1209 12.8352L25.664 11.8556C23.8368 7.937 22.4003 7.41417 18.4818 9.24143L8.68532 13.8096C4.76675 15.6368 4.24392 17.0733 6.07118 20.9919L6.29959 21.4817C7.6515 20.8513 9.26033 21.4369 9.89074 22.7888C10.5211 24.1407 9.93558 25.7495 8.58367 26.3799L8.81208 26.8697C10.6393 30.7883 12.0758 31.3111 15.9944 29.4839L25.7908 24.9157C29.7094 23.0885 30.2322 21.652 28.4049 17.7334C27.053 18.3638 25.4442 17.7783 24.8138 16.4264Z" fill="white" stroke="#001FB9" stroke-width="2" stroke-linecap="round" stroke-linejoin="round"/>
<path d="M11.624 12.4391L18.9331 28.1134" stroke="#001FB9" stroke-width="2" stroke-linecap="round" stroke-linejoin="round" stroke-dasharray="3.12 3.12"/>
</g>
<defs>
<clipPath id="clip0_1572_14849">
<rect width="25.942" height="25.942" fill="white" transform="translate(0 13.0887) rotate(-25)"/>
</clipPath>
</defs>
</svg>
