<svg width="40" height="40" viewBox="0 0 40 40" fill="none" xmlns="http://www.w3.org/2000/svg">
<path d="M31.0504 18.7833V17.0789C31.0504 10.9602 26.0902 6 19.9715 6V6C13.8528 6 8.89258 10.9602 8.89258 17.0789V18.7833" stroke="#001FB9" stroke-width="2" stroke-linecap="round" stroke-linejoin="round"/>
<path d="M5 20.6129C5 18.956 6.34315 17.6129 8 17.6129H8.87095V25.3548H8C6.34315 25.3548 5 24.0116 5 22.3548V20.6129Z" stroke="#001FB9" stroke-width="2" stroke-linecap="round" stroke-linejoin="round"/>
<path d="M35 20.7187C35 19.0618 33.6569 17.7187 32 17.7187H31.129V25.4606H32C33.6569 25.4606 35 24.1174 35 22.4606V20.7187Z" stroke="#001FB9" stroke-width="2" stroke-linecap="round" stroke-linejoin="round"/>
<rect x="16.5605" y="31.1844" width="5.82659" height="3.30699" rx="1.65349" stroke="#001FB9" stroke-width="2" stroke-linecap="round" stroke-linejoin="round"/>
<path d="M31.6393 26.4533V26.4533C31.6393 29.8902 28.8532 32.6763 25.4163 32.6763H22.5762" stroke="#001FB9" stroke-width="2" stroke-linecap="round" stroke-linejoin="round"/>
<path d="M22.4138 12.8177H17.4141V19.181H19.2321V24.1807L22.4138 17.3629H20.5957L22.4138 12.8177Z" fill="#E5EEFE" stroke="#001FB9" stroke-width="1.5" stroke-linecap="round" stroke-linejoin="round"/>
</svg>
