<svg width="40" height="40" viewBox="0 0 40 40" fill="none" xmlns="http://www.w3.org/2000/svg">
<path d="M16.8498 18.5834H12.4332C11.3832 18.5834 10.5332 19.4333 10.5332 20.4833V29.0166H16.8498V18.5834Z" fill="white" stroke="#001FB9" stroke-width="2" stroke-miterlimit="10" stroke-linecap="round" stroke-linejoin="round"/>
<path d="M21.2683 11H18.7349C17.6849 11 16.835 11.85 16.835 12.9V29H23.1516V12.9C23.1516 11.85 22.3183 11 21.2683 11Z" fill="#E5EEFE" stroke="#001FB9" stroke-width="2" stroke-miterlimit="10" stroke-linecap="round" stroke-linejoin="round"/>
<path d="M27.5797 21.4166H23.1631V29H29.4798V23.3167C29.4631 22.2667 28.6131 21.4166 27.5797 21.4166Z" fill="white" stroke="#001FB9" stroke-width="2" stroke-miterlimit="10" stroke-linecap="round" stroke-linejoin="round"/>
<path d="M14.9997 36.6667H24.9997C33.333 36.6667 36.6663 33.3333 36.6663 25V15C36.6663 6.66668 33.333 3.33334 24.9997 3.33334H14.9997C6.66634 3.33334 3.33301 6.66668 3.33301 15V25C3.33301 33.3333 6.66634 36.6667 14.9997 36.6667Z" stroke="#001FB9" stroke-width="2" stroke-linecap="round" stroke-linejoin="round"/>
</svg>
