<svg width="127" height="40" viewBox="0 0 127 40" fill="none" xmlns="http://www.w3.org/2000/svg">
<path d="M31.0908 21.9389V7.51465H36.6666C39.3332 7.51465 41.0302 9.09041 41.0302 11.3934C41.0302 12.7874 40.3029 13.8783 39.2726 14.3025C40.7272 14.6662 41.7575 15.9389 41.7575 17.6965C41.7575 20.1207 39.9393 21.9389 37.3332 21.9389H31.0908V21.9389ZM36.4242 10.2419H34.4242V13.2116H36.4242C37.2726 13.2116 37.8787 12.6662 37.8787 11.6965C37.8787 10.7268 37.212 10.2419 36.4242 10.2419ZM36.8484 15.8783H34.4242V19.2116H36.8484C37.7575 19.2116 38.3636 18.545 38.3636 17.5753C38.3636 16.545 37.6969 15.8783 36.8484 15.8783Z" fill="#283A5E"/>
<path d="M49.0908 11.0303C52.4848 11.0303 55.0908 13.4545 55.0908 16.606C55.0908 19.7575 52.5454 22.1818 49.0908 22.1818C45.6969 22.1818 43.0908 19.7575 43.0908 16.606C43.1514 13.4545 45.6969 11.0303 49.0908 11.0303ZM49.0908 19.2727C50.606 19.2727 51.7575 18.1212 51.7575 16.606C51.7575 15.0909 50.606 13.9394 49.0908 13.9394C47.5757 13.9394 46.4242 15.0909 46.4242 16.606C46.4242 18.1212 47.5757 19.2727 49.0908 19.2727Z" fill="#283A5E"/>
<path d="M60.3636 7.51465H57.0303V21.9389H60.3636V7.51465Z" fill="#283A5E"/>
<path d="M67.2725 11.0298C68.6664 11.0298 69.8179 11.5753 70.6664 12.4237V7.51465H73.9392V21.9389H70.6664V20.7874C69.8179 21.6965 68.6664 22.1813 67.2725 22.1813C64.3634 22.1813 62.2422 19.7571 62.2422 16.6056C62.2422 13.454 64.3634 11.0298 67.2725 11.0298ZM68.121 19.2722C69.5755 19.2722 70.6664 18.1207 70.6664 16.6056C70.6664 15.0904 69.5149 13.9389 68.121 13.9389C66.6664 13.9389 65.5755 15.0904 65.5755 16.6056C65.5755 18.1207 66.6664 19.2722 68.121 19.2722Z" fill="#283A5E"/>
<path d="M83.7572 7.51465C88.1209 7.51465 90.9693 10.3631 90.9693 14.7268C90.9693 19.0904 88.0602 21.9389 83.7572 21.9389H78.3633V7.51465H83.7572ZM81.8178 10.4843V18.9692H82.8481C83.2118 18.9692 83.5754 18.9692 83.8784 18.9086C86.1209 18.7874 87.5754 17.3934 87.5754 14.6662C87.5754 11.8783 85.939 10.4237 83.5754 10.4237H81.8178V10.4843Z" fill="#283A5E"/>
<path d="M98.6066 19.6969C100.001 19.6969 101.091 19.2726 102.061 18.4242L103.455 19.9999C102.304 21.2726 100.728 22.2423 98.546 22.2423C94.8491 22.2423 92.4248 19.8181 92.4248 16.6666C92.4248 13.5151 94.9703 11.0908 98.3036 11.0908C101.576 11.0908 103.94 13.5151 103.94 16.4848C103.94 16.8484 103.879 17.2726 103.758 17.5757H95.7581C95.94 18.8484 97.0309 19.6969 98.6066 19.6969ZM95.7581 15.3939H100.546C100.304 14.2423 99.4551 13.4545 98.243 13.4545C97.0309 13.5151 96.0612 14.2423 95.7581 15.3939Z" fill="#283A5E"/>
<path d="M106.485 18.4848C107.333 19.2726 108.242 19.6969 109.273 19.6969C110.121 19.6969 110.545 19.3939 110.545 18.8484C110.545 18.3029 110.121 17.9999 108.909 17.7575C106.666 17.2726 105.454 16.0605 105.454 14.3029C105.454 12.4242 107.091 11.0908 109.394 11.0908C111.939 11.0908 113.333 12.5454 113.636 14.5454H110.788C110.666 13.9393 110.242 13.5757 109.576 13.5757C108.969 13.5757 108.545 13.8787 108.545 14.3029C108.545 14.7878 108.969 15.1514 110.121 15.3938C112.545 15.8787 113.697 17.0908 113.697 18.8484C113.697 20.7878 112 22.1817 109.394 22.1817C107.818 22.1817 106.363 21.3938 105.212 19.9393L106.485 18.4848Z" fill="#283A5E"/>
<path d="M124.97 11.2722C124.97 13.9995 124.243 15.8177 122.97 16.7268L125.697 21.9389H122.122L119.94 17.5146H119.031V21.9389H115.697V7.51465H119.031V14.7268H119.697C120.788 14.7268 121.758 14.0601 121.758 11.2722H124.97V11.2722Z" fill="#283A5E"/>
<path d="M33.9393 34.5452C33.212 34.5452 32.606 34.2422 32.1817 33.7573V34.424H31.0908V27.2725H32.1817V30.0603C32.606 29.5755 33.212 29.2725 33.9393 29.2725C35.3939 29.2725 36.4242 30.424 36.4242 31.9391C36.4242 33.3331 35.3939 34.5452 33.9393 34.5452ZM33.7575 30.2422C32.8484 30.2422 32.1817 30.9694 32.1817 31.8785C32.1817 32.7876 32.8484 33.5149 33.7575 33.5149C34.6666 33.5149 35.3332 32.7876 35.3332 31.8785C35.2726 30.9694 34.6666 30.2422 33.7575 30.2422Z" fill="#283A5E"/>
<path d="M37.8184 36.6663L38.7275 34.3633L36.7881 29.333H37.9396L39.2729 32.9694L40.6063 29.333H41.7578L38.9699 36.6663H37.8184V36.6663Z" fill="#283A5E"/>
<path d="M45.939 32.6662C46.4239 33.2117 47.0299 33.5753 47.6966 33.5753C48.4845 33.5753 49.0299 33.2117 49.0299 32.6056C49.0299 32.0602 48.6663 31.6359 47.5148 31.3935C46.1208 31.0905 45.3936 30.4238 45.3936 29.3935C45.3936 28.242 46.3026 27.4541 47.636 27.4541C48.8481 27.4541 49.939 28.1208 50.0602 29.4541H48.9087C48.8481 28.7874 48.3632 28.4238 47.6966 28.4238C47.0299 28.4238 46.6057 28.7874 46.6057 29.2723C46.6057 29.8177 47.0299 30.1814 48.0602 30.4238C49.5754 30.7874 50.242 31.4541 50.242 32.545C50.242 33.6965 49.3329 34.545 47.7572 34.545C46.8481 34.545 45.9996 34.0602 45.3936 33.2723L45.939 32.6662Z" fill="#283A5E"/>
<path d="M51.6367 36.6663L52.5458 34.3633L50.6064 29.333H51.758L53.0913 32.9694L54.4246 29.333H55.5761L52.7883 36.6663H51.6367V36.6663Z" fill="#283A5E"/>
<path d="M61.0299 31.2725V34.3634H59.939V31.3331C59.939 30.6665 59.4542 30.1816 58.7875 30.1816C58.1209 30.1816 57.4542 30.7877 57.4542 31.5755V34.3634H56.3633V29.3331H57.4542V29.9998C57.8178 29.5149 58.3633 29.2119 58.9693 29.2119C60.2421 29.2119 61.0299 30.0604 61.0299 31.2725Z" fill="#283A5E"/>
<path d="M66.9697 33.1513C66.4848 34.0604 65.697 34.5452 64.7273 34.5452C63.2121 34.5452 62 33.3937 62 31.8786C62 30.3634 63.1515 29.2119 64.6061 29.2119C65.8788 29.2119 66.7879 29.8786 67.0909 31.0301H65.8788C65.697 30.5452 65.2727 30.1816 64.6667 30.1816C63.8788 30.1816 63.1515 30.8483 63.1515 31.818C63.1515 32.8483 63.9394 33.4543 64.7879 33.4543C65.3939 33.4543 65.9394 33.1513 66.3636 32.6059L66.9697 33.1513Z" fill="#283A5E"/>
<path d="M70.848 28.2422C70.7268 28.2422 70.5449 28.2422 70.4237 28.2422C69.7571 28.2422 69.5146 28.5452 69.5146 29.0906V29.3937H70.848V30.3028H69.5146V34.3634H68.4237V30.3028H67.5146V29.3331H68.4237V29.03C68.4237 27.8179 69.0298 27.2725 70.3025 27.2725C70.4843 27.2725 70.7268 27.2725 70.848 27.3331V28.2422Z" fill="#283A5E"/>
<path d="M71.6367 32.4845V29.3936H72.7276V32.4239C72.7276 33.0905 73.2125 33.5754 73.8791 33.5754C74.6064 33.5754 75.2125 32.9693 75.2125 32.1208V29.3936H76.3034V34.4239H75.2125V33.7572C74.8488 34.242 74.3034 34.5451 73.6973 34.5451C72.4246 34.4845 71.6367 33.6966 71.6367 32.4845Z" fill="#283A5E"/>
<path d="M77.8784 32.9694C78.242 33.3331 78.6663 33.6361 79.2117 33.6361C79.7572 33.6361 80.1208 33.3937 80.1208 33.03C80.1208 32.6664 79.8178 32.424 79.1511 32.3028C78.0602 32.0603 77.5148 31.5149 77.5148 30.727C77.5148 29.8785 78.1814 29.2725 79.2723 29.2725C80.3026 29.2725 81.0299 29.8179 81.1511 30.7876H80.0602C79.9996 30.424 79.7572 30.1816 79.3329 30.1816C78.9087 30.1816 78.6057 30.424 78.6057 30.727C78.6057 31.03 78.9087 31.3331 79.5148 31.4543C80.6663 31.6967 81.2117 32.1816 81.2117 33.03C81.2117 33.8785 80.4845 34.5452 79.2723 34.5452C78.4845 34.5452 77.8784 34.1816 77.3936 33.5755L77.8784 32.9694Z" fill="#283A5E"/>
<path d="M82.8483 27.2725C83.2119 27.2725 83.515 27.5755 83.515 27.9391C83.515 28.3028 83.2119 28.6058 82.8483 28.6058C82.4847 28.6058 82.1816 28.3028 82.1816 27.9391C82.1816 27.5755 82.4847 27.2725 82.8483 27.2725ZM82.3029 29.3331H83.3938V34.3634H82.3029V29.3331Z" fill="#283A5E"/>
<path d="M87.2723 29.2119C88.848 29.2119 90.0601 30.3634 90.0601 31.8786C90.0601 33.3937 88.9086 34.5452 87.2723 34.5452C85.6965 34.5452 84.4844 33.3937 84.4844 31.8786C84.4844 30.3634 85.6965 29.2119 87.2723 29.2119ZM87.2723 33.5149C88.1813 33.5149 88.9086 32.7877 88.9086 31.8786C88.9086 30.9695 88.1813 30.2422 87.2723 30.2422C86.3632 30.2422 85.6359 30.9695 85.6359 31.8786C85.6359 32.7877 86.3632 33.5149 87.2723 33.5149Z" fill="#283A5E"/>
<path d="M95.7575 31.2725V34.3634H94.6666V31.3331C94.6666 30.6665 94.1817 30.1816 93.5151 30.1816C92.8484 30.1816 92.1817 30.7877 92.1817 31.5755V34.3634H91.0908V29.3331H92.1817V29.9998C92.5454 29.5149 93.0908 29.2119 93.6969 29.2119C94.9696 29.2119 95.7575 30.0604 95.7575 31.2725Z" fill="#283A5E"/>
<path d="M7.69697 26.3633H16.303C20.5455 26.3633 24 22.9088 24 18.6663V11.03C24 6.78755 20.5455 3.33301 16.303 3.33301H7.69697C3.45455 3.33301 0 6.78755 0 11.03V18.7269C0 22.9088 3.45455 26.3633 7.69697 26.3633ZM4.30303 4.12089L8.60606 8.12089H16.7879C18.3636 8.12089 19.6364 9.39361 19.6364 10.9694V19.1512C19.6364 20.7269 18.3636 21.9997 16.7879 21.9997H7.21212C5.63636 21.9997 4.36364 20.7269 4.36364 19.1512V4.12089H4.30303Z" fill="#FF4800"/>
<path d="M15.3337 19.1516L13.3943 17.2122H9.09129C8.84887 17.2122 8.60645 16.9698 8.60645 16.7273V12.4243C8.60645 12.1819 8.84887 11.9395 9.09129 11.9395H14.8489C15.0913 11.9395 15.3337 12.1819 15.3337 12.4243V19.1516Z" fill="#FF4800"/>
</svg>
