<svg width="40" height="40" viewBox="0 0 40 40" fill="none" xmlns="http://www.w3.org/2000/svg">
<path d="M3.45001 7.66668C4.78334 1.90001 13.4667 1.90001 14.7833 7.66668C15.5667 11.05 13.4167 13.9167 11.55 15.7C10.1833 17 8.03334 16.9833 6.66668 15.7C4.81668 13.9167 2.66668 11.05 3.45001 7.66668Z" fill="#E5EEFE" stroke="#1437D6" stroke-width="2"/>
<path d="M19.9999 8.33337H24.4666C27.5499 8.33337 28.9833 12.15 26.6666 14.1834L13.3499 25.8334C11.0333 27.85 12.4666 31.6667 15.5333 31.6667H19.9999" stroke="#1437D6" stroke-width="2" stroke-linecap="round" stroke-linejoin="round"/>
<path d="M9.14369 9.16671H9.16295" stroke="#1437D6" stroke-width="2" stroke-linecap="round" stroke-linejoin="round"/>
<path d="M28.2833 25H33.2833C35.1166 25 36.6166 26.5 36.6166 28.3333V33.3333C36.6166 35.1667 35.1166 36.6667 33.2833 36.6667H28.2833C26.4499 36.6667 24.95 35.1667 24.95 33.3333V28.3333C24.95 26.5 26.4499 25 28.2833 25Z" stroke="#1437D6" stroke-width="2"/>
<path d="M30.8103 30.8333H30.8296" stroke="#1437D6" stroke-width="2" stroke-linecap="round" stroke-linejoin="round"/>
</svg>
