<svg width="40" height="40" viewBox="0 0 40 40" fill="none" xmlns="http://www.w3.org/2000/svg">
<path d="M21.9512 29.6293V28.3219C21.9512 27.5487 22.5487 26.916 23.279 26.916C24.5538 26.916 25.0717 25.96 24.4343 24.7932C24.0625 24.1184 24.2882 23.2467 24.9256 22.8671L26.1339 22.122C26.6916 21.7706 27.4087 21.9814 27.7407 22.5719L27.8203 22.7125C28.4577 23.8794 29.4934 23.8794 30.1308 22.7125L30.2105 22.5719C30.5424 21.9814 31.2595 21.7846 31.8172 22.122L33.0256 22.8671C33.6629 23.2608 33.8887 24.1184 33.5169 24.7932C32.8795 25.96 33.3974 26.916 34.6721 26.916C35.4024 26.916 36 27.5487 36 28.3219V29.6293C36 30.4026 35.4024 31.0352 34.6721 31.0352C33.3974 31.0352 32.8795 31.9912 33.5169 33.1581C33.8887 33.8329 33.6629 34.7045 33.0256 35.0841L31.8172 35.8292C31.2595 36.1807 30.5424 35.9698 30.2105 35.3793L30.1308 35.2387C29.4934 34.0719 28.4577 34.0719 27.8203 35.2387L27.7407 35.3793C27.4087 35.9698 26.6916 36.1666 26.1339 35.8292L24.9256 35.0841C24.2882 34.6905 24.0625 33.8329 24.4343 33.1581C25.0717 31.9912 24.5538 31.0352 23.279 31.0352C22.5487 31.0493 21.9512 30.4166 21.9512 29.6293Z" fill="#E5EEFE" stroke="#001FB9" stroke-width="1.88235" stroke-miterlimit="10" stroke-linecap="round" stroke-linejoin="round"/>
<path d="M28.9753 31.3171C30.2684 31.3171 31.3167 30.2688 31.3167 28.9757C31.3167 27.6825 30.2684 26.6342 28.9753 26.6342C27.6821 26.6342 26.6338 27.6825 26.6338 28.9757C26.6338 30.2688 27.6821 31.3171 28.9753 31.3171Z" fill="white" stroke="#001FB9" stroke-width="1.88235" stroke-miterlimit="10" stroke-linecap="round" stroke-linejoin="round"/>
<path d="M18.8293 30.5366H16.8781H12C7.58173 30.5366 4 26.9548 4 22.5366V12C4 7.58173 7.58172 4 12 4H20.9756C25.3939 4 28.9756 7.58172 28.9756 12V17.2683V18.8293" stroke="#001FB9" stroke-width="1.88235" stroke-linecap="round" stroke-linejoin="round"/>
<path d="M17.5879 13.0557L19.4175 14.8791L23.3089 11.3895" stroke="#001FB9" stroke-width="1.88235" stroke-linecap="round" stroke-linejoin="round"/>
<path d="M17.5879 20.1278L19.4175 21.9511L23.3089 18.4615" stroke="#001FB9" stroke-width="1.88235" stroke-linecap="round" stroke-linejoin="round"/>
<path d="M10.5947 13.4286L12.6115 13.4286" stroke="#001FB9" stroke-width="2.35294" stroke-linecap="round" stroke-linejoin="round"/>
<path d="M10.5947 21.1711L12.6115 21.1711" stroke="#001FB9" stroke-width="2.35294" stroke-linecap="round" stroke-linejoin="round"/>
</svg>
