<svg xmlns="http://www.w3.org/2000/svg" width="120" height="40" viewBox="0 0 120 40" fill="none"><g clip-path="url(#clip0_12420_19057)"><mask id="mask0_12420_19057" style="mask-type:luminance" maskUnits="userSpaceOnUse" x="0" y="0" width="120" height="40"><path d="M120 0H0V40H120V0Z" fill="white"></path></mask><g mask="url(#mask0_12420_19057)"><path d="M110.444 1.72057e-06H9.56143C9.19371 1.72057e-06 8.83043 1.72062e-06 8.46364 0.00200172C8.15664 0.00400172 7.85207 0.00981172 7.54214 0.0147017C6.86874 0.0226035 6.19696 0.0816782 5.53259 0.191412C4.86916 0.303535 4.22651 0.514917 3.62637 0.818415C3.02697 1.12447 2.47929 1.52217 2.00318 1.99707C1.52457 2.47064 1.12561 3.01802 0.82165 3.61816C0.516847 4.21711 0.305496 4.85894 0.194896 5.52149C0.0832443 6.18319 0.0231632 6.85252 0.0151925 7.52352C0.00588648 7.83009 0.00490373 8.13773 0 8.44437V31.5586C0.00490373 31.8691 0.00588648 32.1699 0.0151925 32.4805C0.0231656 33.1514 0.0832464 33.8207 0.194896 34.4824C0.30519 35.1453 0.516554 35.7875 0.82165 36.3867C1.12548 36.9849 1.52449 37.5301 2.00318 38.001C2.47748 38.478 3.02552 38.876 3.62637 39.1797C4.2265 39.484 4.86908 39.6967 5.53259 39.8105C6.19706 39.9194 6.86879 39.9784 7.54214 39.9873C7.85207 39.9941 8.15664 39.998 8.46364 39.998C8.83036 40 9.19371 40 9.56143 40H110.444C110.804 40 111.171 40 111.531 39.998C111.836 39.998 112.15 39.9941 112.456 39.9873C113.128 39.9789 113.798 39.9198 114.461 39.8105C115.126 39.6959 115.771 39.4832 116.374 39.1797C116.975 38.8758 117.522 38.4779 117.996 38.001C118.474 37.5282 118.874 36.9834 119.181 36.3867C119.484 35.7871 119.694 35.1449 119.802 34.4824C119.914 33.8207 119.976 33.1515 119.989 32.4805C119.992 32.1699 119.992 31.8691 119.992 31.5586C120 31.1953 120 30.834 120 30.4648V9.53616C120 9.16994 120 8.80666 119.992 8.44437C119.992 8.13773 119.992 7.83009 119.989 7.52344C119.976 6.85242 119.914 6.18324 119.802 5.52144C119.693 4.85929 119.484 4.21751 119.181 3.61812C118.562 2.4152 117.581 1.43603 116.374 0.818322C115.771 0.515569 115.126 0.304242 114.461 0.191322C113.798 0.0811046 113.128 0.0220095 112.456 0.0145617C112.15 0.00968172 111.836 0.00382172 111.531 0.00187172C111.171 -0.000128279 110.804 1.72057e-06 110.444 1.72057e-06Z" fill="#A6A6A6"></path><path d="M8.46851 39.1247C8.16293 39.1247 7.86479 39.1208 7.56165 39.114C6.9337 39.1058 6.30718 39.0513 5.68728 38.9509C5.10926 38.8516 4.54931 38.667 4.02589 38.403C3.50728 38.1412 3.03427 37.798 2.62497 37.3864C2.20975 36.9797 1.86406 36.5079 1.6016 35.9899C1.33624 35.4685 1.15261 34.9096 1.05707 34.3327C0.953906 33.7128 0.898092 33.086 0.890106 32.4577C0.883749 32.2468 0.875427 31.5446 0.875427 31.5446V8.44405C0.875427 8.44405 0.884292 7.75262 0.890156 7.54947C0.897806 6.92217 0.953292 6.29635 1.05615 5.67742C1.15186 5.09895 1.33564 4.53844 1.60113 4.01532C1.86263 3.49764 2.20641 3.02555 2.61913 2.61737C3.03138 2.20532 3.50591 1.8603 4.02541 1.5949C4.54761 1.33179 5.10651 1.14842 5.68336 1.05097C6.3053 0.949531 6.93398 0.894688 7.56415 0.886902L8.46901 0.874695H111.526L112.441 0.887395C113.066 0.894795 113.689 0.949145 114.305 1.04999C114.888 1.14867 115.453 1.33331 115.981 1.59784C117.021 2.13268 117.869 2.97886 118.403 4.01777C118.664 4.53727 118.845 5.0932 118.939 5.66668C119.044 6.29069 119.101 6.92143 119.114 7.5539C119.116 7.83712 119.116 8.14126 119.116 8.44405C119.124 8.81905 119.124 9.17597 119.124 9.53583V30.4645C119.124 30.8278 119.124 31.1823 119.116 31.5397C119.116 31.8649 119.116 32.1628 119.113 32.4694C119.101 33.0905 119.044 33.71 118.941 34.3229C118.848 34.904 118.665 35.4672 118.4 35.9929C118.136 36.5053 117.791 36.973 117.381 37.3786C116.971 37.7924 116.498 38.1376 115.978 38.4011C115.451 38.6671 114.887 38.8524 114.305 38.9509C113.686 39.0518 113.059 39.1064 112.431 39.114C112.137 39.1208 111.829 39.1247 111.531 39.1247L110.444 39.1267L8.46851 39.1247Z" fill="black"></path><path d="M24.8388 20.3002C24.8496 19.4655 25.0719 18.6471 25.4851 17.9212C25.8983 17.1952 26.4889 16.5853 27.202 16.1481C26.749 15.503 26.1514 14.972 25.4566 14.5975C24.7618 14.2229 23.989 14.015 23.1996 13.9904C21.5157 13.8142 19.8832 14.9953 19.025 14.9953C18.1503 14.9953 16.8291 14.0079 15.4064 14.0371C14.4862 14.0668 13.5893 14.3336 12.8033 14.8117C12.0172 15.2898 11.3687 15.9627 10.921 16.765C8.98154 20.1134 10.4282 25.0345 12.286 27.741C13.2155 29.0664 14.3018 30.5468 15.7232 30.4943C17.1142 30.4368 17.6337 29.6099 19.3127 29.6099C20.9761 29.6099 21.4635 30.4943 22.9138 30.461C24.4063 30.4368 25.3467 29.1298 26.2435 27.7918C26.9114 26.8475 27.4253 25.8038 27.7663 24.6993C26.8991 24.3336 26.1591 23.7214 25.6385 22.9391C25.118 22.1568 24.8398 21.239 24.8388 20.3002Z" fill="white"></path><path d="M22.0999 12.2106C22.9136 11.2364 23.3146 9.98418 23.2175 8.71997C21.9741 8.85018 20.8257 9.44276 20.0009 10.3796C19.5976 10.8373 19.2888 11.3697 19.092 11.9465C18.8952 12.5233 18.8143 13.133 18.854 13.741C19.4759 13.7473 20.0911 13.613 20.6534 13.3478C21.2156 13.0828 21.7101 12.6939 22.0999 12.2106Z" fill="white"></path><path d="M42.4214 27.1396H37.6747L36.5348 30.4961H34.5243L39.0203 18.0781H41.1091L45.6051 30.4961H43.5603L42.4214 27.1396ZM38.1663 25.5908H41.9289L40.074 20.1436H40.0221L38.1663 25.5908Z" fill="white"></path><path d="M55.315 25.97C55.315 28.7835 53.8049 30.5911 51.5261 30.5911C50.9488 30.6212 50.3747 30.4886 49.8695 30.2085C49.3643 29.9284 48.9483 29.512 48.6694 29.0071H48.6263V33.4915H46.7627V21.4426H48.5666V22.9485H48.6008C48.8926 22.4461 49.3156 22.0319 49.8246 21.75C50.3336 21.4681 50.9098 21.3292 51.4918 21.3479C53.7961 21.3479 55.315 23.1644 55.315 25.97ZM53.3995 25.97C53.3995 24.137 52.4495 22.9319 51.0001 22.9319C49.5763 22.9319 48.6185 24.1624 48.6185 25.97C48.6185 27.7942 49.5763 29.0159 51.0001 29.0159C52.4496 29.0159 53.3995 27.8196 53.3995 25.97Z" fill="white"></path><path d="M65.3073 25.97C65.3073 28.7835 63.7972 30.5911 61.5184 30.5911C60.9411 30.6212 60.367 30.4886 59.8618 30.2084C59.3566 29.9284 58.9407 29.512 58.6618 29.0071H58.6186V33.4915H56.755V21.4426H58.5589V22.9485H58.5931C58.8849 22.4461 59.3079 22.0319 59.8169 21.75C60.326 21.4681 60.9021 21.3292 61.4841 21.3479C63.7884 21.3479 65.3073 23.1644 65.3073 25.97ZM63.3918 25.97C63.3918 24.137 62.4419 22.9319 60.9925 22.9319C59.5686 22.9319 58.6109 24.1624 58.6109 25.97C58.6109 27.7942 59.5686 29.0159 60.9925 29.0159C62.4419 29.0159 63.3918 27.8196 63.3918 25.97Z" fill="white"></path><path d="M71.9121 27.0362C72.05 28.2677 73.25 29.0762 74.8893 29.0762C76.46 29.0762 77.59 28.2676 77.59 27.1572C77.59 26.1934 76.9086 25.6162 75.2943 25.2207L73.6807 24.833C71.3939 24.2822 70.3323 23.2159 70.3323 21.4854C70.3323 19.3428 72.205 17.8711 74.8636 17.8711C77.495 17.8711 79.2986 19.3428 79.3593 21.4854H77.4786C77.3657 20.2461 76.3386 19.4981 74.8371 19.4981C73.3357 19.4981 72.3086 20.255 72.3086 21.3565C72.3086 22.2344 72.9643 22.751 74.57 23.1464L75.9414 23.4825C78.4964 24.085 79.5586 25.1084 79.5586 26.9248C79.5586 29.248 77.7021 30.7031 74.7507 30.7031C71.9893 30.7031 70.1246 29.2822 70.0042 27.0361L71.9121 27.0362Z" fill="white"></path><path d="M83.5807 19.2996V21.4422H85.3072V22.9139H83.5807V27.9051C83.5807 28.6805 83.9257 29.0418 84.685 29.0418C84.89 29.0383 85.0943 29.0239 85.2979 28.9988V30.4617C84.9572 30.5253 84.61 30.5541 84.2629 30.5477C82.425 30.5477 81.7079 29.8592 81.7079 28.1033V22.9139H80.3879V21.4422H81.7079V19.2996H83.5807Z" fill="white"></path><path d="M86.3071 25.9696C86.3071 23.1209 87.9893 21.3309 90.6128 21.3309C93.2457 21.3309 94.92 23.1209 94.92 25.9696C94.92 28.826 93.2543 30.6083 90.6128 30.6083C87.9728 30.6083 86.3071 28.826 86.3071 25.9696ZM93.0214 25.9696C93.0214 24.0155 92.1236 22.8621 90.6128 22.8621C89.1028 22.8621 88.2057 24.0243 88.2057 25.9696C88.2057 27.9315 89.1028 29.076 90.6128 29.076C92.1236 29.076 93.0214 27.9315 93.0214 25.9696Z" fill="white"></path><path d="M96.4564 21.4424H98.2336V22.9834H98.2771C98.3971 22.5021 98.68 22.0768 99.0778 21.7789C99.4757 21.481 99.9636 21.3287 100.461 21.3476C100.676 21.3469 100.89 21.3701 101.099 21.417V23.1553C100.829 23.0726 100.546 23.0347 100.262 23.043C99.9914 23.032 99.7214 23.0796 99.4707 23.1825C99.22 23.2854 98.995 23.4411 98.8107 23.639C98.6257 23.8369 98.4864 24.0723 98.4021 24.3289C98.3171 24.5856 98.2893 24.8575 98.32 25.126V30.4961H96.4564V21.4424Z" fill="white"></path><path d="M109.691 27.8368C109.441 29.4804 107.836 30.6083 105.782 30.6083C103.141 30.6083 101.502 28.8436 101.502 26.0126C101.502 23.1727 103.15 21.3309 105.704 21.3309C108.216 21.3309 109.796 23.0516 109.796 25.7967V26.4334H103.383V26.5458C103.354 26.8789 103.395 27.2146 103.506 27.5304C103.616 27.8463 103.793 28.1351 104.024 28.3776C104.255 28.6202 104.535 28.8109 104.846 28.9372C105.156 29.0636 105.49 29.1225 105.826 29.1102C106.266 29.1514 106.708 29.0496 107.086 28.8202C107.464 28.5908 107.756 28.2459 107.922 27.8368H109.691ZM103.392 25.1346H107.931C107.948 24.835 107.902 24.5352 107.797 24.254C107.692 23.9728 107.53 23.7163 107.321 23.5005C107.112 23.2847 106.86 23.1144 106.582 23.0001C106.304 22.8859 106.005 22.8304 105.704 22.8368C105.401 22.835 105.1 22.8931 104.819 23.0079C104.538 23.1226 104.283 23.2916 104.068 23.5053C103.853 23.7189 103.682 23.9729 103.566 24.2526C103.451 24.5322 103.391 24.832 103.392 25.1346Z" fill="white"></path><path d="M37.9328 8.73076C38.3235 8.70283 38.7156 8.76169 39.0807 8.90312C39.4458 9.04454 39.7749 9.26497 40.0443 9.54861C40.3136 9.83226 40.5165 10.172 40.6382 10.5433C40.76 10.9145 40.7976 11.3081 40.7483 11.6956C40.7483 13.6018 39.7151 14.6976 37.9328 14.6976H35.7715V8.73076H37.9328ZM36.7008 13.8538H37.829C38.1082 13.8704 38.3876 13.8248 38.6468 13.7201C38.9061 13.6155 39.1387 13.4545 39.3277 13.249C39.5168 13.0435 39.6574 12.7985 39.7395 12.5318C39.8216 12.2652 39.8431 11.9837 39.8023 11.7078C39.8401 11.4329 39.8165 11.1532 39.7331 10.8885C39.6498 10.6238 39.5088 10.3808 39.3201 10.1769C39.1316 9.97297 38.9001 9.81319 38.6423 9.7089C38.3845 9.60469 38.1068 9.55861 37.829 9.57397H36.7008V13.8538Z" fill="white"></path><path d="M41.7986 12.4438C41.7702 12.1479 41.8042 11.8493 41.8982 11.5672C41.9924 11.2851 42.1445 11.0259 42.345 10.8059C42.5455 10.5859 42.7899 10.4101 43.0626 10.2899C43.3352 10.1696 43.63 10.1074 43.9281 10.1074C44.2262 10.1074 44.521 10.1696 44.7936 10.2899C45.0662 10.4101 45.3107 10.5859 45.5112 10.8059C45.7117 11.0259 45.8638 11.2851 45.9579 11.5672C46.052 11.8493 46.0859 12.1479 46.0576 12.4438C46.0865 12.74 46.0529 13.039 45.9591 13.3215C45.8652 13.6041 45.7132 13.8639 45.5126 14.0843C45.3121 14.3047 45.0675 14.4809 44.7946 14.6014C44.5217 14.7219 44.2265 14.7841 43.9281 14.7841C43.6297 14.7841 43.3344 14.7219 43.0616 14.6014C42.7887 14.4809 42.5441 14.3047 42.3436 14.0843C42.143 13.8639 41.9909 13.6041 41.8971 13.3215C41.8032 13.039 41.7697 12.74 41.7986 12.4438ZM45.1409 12.4438C45.1409 11.4677 44.7012 10.8969 43.9296 10.8969C43.1549 10.8969 42.7192 11.4677 42.7192 12.4438C42.7192 13.4277 43.1549 13.9941 43.9296 13.9941C44.7012 13.9941 45.1409 13.4238 45.1409 12.4438Z" fill="white"></path><path d="M51.7185 14.6976H50.794L49.8607 11.3811H49.7902L48.8609 14.6976H47.9452L46.7005 10.1946H47.6044L48.4134 13.6306H48.4799L49.4083 10.1946H50.2632L51.1916 13.6306H51.2621L52.0671 10.1946H52.9583L51.7185 14.6976Z" fill="white"></path><path d="M54.0051 10.1946H54.863V10.9099H54.9296C55.0426 10.653 55.2331 10.4376 55.4746 10.2938C55.7162 10.15 55.9967 10.0849 56.2771 10.1076C56.4968 10.0912 56.7174 10.1242 56.9226 10.2044C57.1278 10.2844 57.3123 10.4095 57.4623 10.5704C57.6125 10.7312 57.7243 10.9236 57.7897 11.1335C57.8551 11.3433 57.8723 11.5651 57.8401 11.7825V14.6975H56.9489V12.0056C56.9489 11.282 56.6336 10.9221 55.9745 10.9221C55.8253 10.9152 55.6764 10.9405 55.538 10.9964C55.3995 11.0522 55.2748 11.1372 55.1724 11.2456C55.07 11.354 54.9923 11.4831 54.9446 11.6243C54.897 11.7654 54.8805 11.9151 54.8963 12.0632V14.6975H54.0051V10.1946Z" fill="white"></path><path d="M59.2599 8.43677H60.1511V14.6976H59.2599V8.43677Z" fill="white"></path><path d="M61.3898 12.4439C61.3614 12.1479 61.3954 11.8494 61.4895 11.5673C61.5836 11.2852 61.7359 11.0258 61.9364 10.8058C62.1369 10.5859 62.3813 10.4101 62.6539 10.2899C62.9266 10.1696 63.2214 10.1074 63.5196 10.1074C63.8176 10.1074 64.1125 10.1696 64.3851 10.2899C64.6578 10.4101 64.9021 10.5859 65.1027 10.8058C65.3032 11.0258 65.4554 11.2852 65.5496 11.5673C65.6436 11.8494 65.6776 12.1479 65.6493 12.4439C65.6781 12.7401 65.6446 13.0391 65.5507 13.3216C65.4569 13.6041 65.3047 13.8639 65.1041 14.0843C64.9036 14.3048 64.6589 14.4809 64.3861 14.6014C64.1131 14.7219 63.818 14.7842 63.5196 14.7842C63.2211 14.7842 62.9259 14.7219 62.653 14.6014C62.3801 14.4809 62.1355 14.3048 61.9349 14.0843C61.7344 13.8639 61.5822 13.6041 61.4884 13.3216C61.3945 13.0391 61.3609 12.7401 61.3898 12.4439ZM64.7321 12.4439C64.7321 11.4678 64.2924 10.897 63.5208 10.897C62.7461 10.897 62.3104 11.4678 62.3104 12.4439C62.3104 13.4278 62.7461 13.9942 63.5208 13.9942C64.2924 13.9941 64.7321 13.4239 64.7321 12.4439Z" fill="white"></path><path d="M66.5876 13.4239C66.5876 12.6133 67.1929 12.146 68.2671 12.0796L69.4903 12.0093V11.6206C69.4903 11.145 69.1749 10.8764 68.5658 10.8764C68.0684 10.8764 67.7236 11.0586 67.6247 11.3769H66.7619C66.853 10.6035 67.5826 10.1074 68.6069 10.1074C69.739 10.1074 70.3775 10.6694 70.3775 11.6206V14.6973H69.5196V14.0644H69.4491C69.306 14.2914 69.1051 14.4765 68.8668 14.6007C68.6285 14.7249 68.3614 14.7839 68.0928 14.7714C67.9032 14.7911 67.7116 14.7709 67.5304 14.7122C67.3491 14.6536 67.1822 14.5576 67.0404 14.4306C66.8986 14.3037 66.785 14.1485 66.707 13.9751C66.629 13.8016 66.5884 13.6139 66.5876 13.4239ZM69.4903 13.0391V12.6626L68.3876 12.7329C67.7657 12.7744 67.4836 12.9854 67.4836 13.3823C67.4836 13.7876 67.8362 14.0234 68.321 14.0234C68.4631 14.0378 68.6065 14.0234 68.7429 13.9814C68.8793 13.9393 69.0058 13.8703 69.1149 13.7784C69.224 13.6866 69.3134 13.5738 69.3779 13.4468C69.4424 13.3198 69.4806 13.1811 69.4903 13.0391Z" fill="white"></path><path d="M71.5486 12.4441C71.5486 11.0213 72.2822 10.1199 73.4229 10.1199C73.705 10.1069 73.985 10.1743 74.2307 10.3143C74.4757 10.4541 74.6757 10.6608 74.8079 10.9099H74.8743V8.43677H75.7657V14.6976H74.9114V13.9861H74.8407C74.6993 14.2336 74.4914 14.4376 74.2422 14.5761C73.9922 14.7146 73.7086 14.7823 73.4229 14.7718C72.2743 14.7718 71.5486 13.8704 71.5486 12.4441ZM72.4693 12.4441C72.4693 13.3992 72.9207 13.9739 73.6757 13.9739C74.4264 13.9739 74.8907 13.3909 74.8907 12.4481C74.8907 11.5096 74.4222 10.9183 73.6757 10.9183C72.9257 10.9183 72.4693 11.4968 72.4693 12.4441Z" fill="white"></path><path d="M79.4529 12.4438C79.4243 12.1479 79.4586 11.8493 79.5522 11.5672C79.6465 11.2851 79.7986 11.0259 79.9993 10.8059C80.2 10.5859 80.4443 10.4101 80.7165 10.2899C80.9893 10.1696 81.2843 10.1074 81.5822 10.1074C81.88 10.1074 82.175 10.1696 82.4479 10.2899C82.7207 10.4101 82.965 10.5859 83.165 10.8059C83.3657 11.0259 83.5179 11.2851 83.6122 11.5672C83.7065 11.8493 83.74 12.1479 83.7115 12.4438C83.7407 12.74 83.7072 13.039 83.6136 13.3215C83.5193 13.6041 83.3672 13.8639 83.1665 14.0843C82.9665 14.3047 82.7215 14.4809 82.4486 14.6014C82.1757 14.7219 81.8807 14.7841 81.5822 14.7841C81.2836 14.7841 80.9886 14.7219 80.7157 14.6014C80.4429 14.4809 80.1986 14.3047 79.9979 14.0843C79.7972 13.8639 79.645 13.6041 79.5515 13.3215C79.4572 13.039 79.4236 12.74 79.4529 12.4438ZM82.795 12.4438C82.795 11.4677 82.3557 10.8969 81.5836 10.8969C80.8093 10.8969 80.3736 11.4677 80.3736 12.4438C80.3736 13.4277 80.8093 13.9941 81.5836 13.9941C82.3557 13.9941 82.795 13.4238 82.795 12.4438Z" fill="white"></path><path d="M84.9072 10.1946H85.765V10.9099H85.8315C85.945 10.653 86.135 10.4376 86.3765 10.2938C86.6186 10.15 86.8986 10.0849 87.1793 10.1076C87.3993 10.0912 87.6193 10.1242 87.825 10.2044C88.03 10.2844 88.2143 10.4095 88.3643 10.5704C88.5143 10.7312 88.6264 10.9236 88.6922 11.1335C88.7572 11.3433 88.7743 11.5651 88.7422 11.7825V14.6975H87.8507V12.0056C87.8507 11.282 87.5357 10.9221 86.8764 10.9221C86.7272 10.9152 86.5786 10.9405 86.44 10.9964C86.3014 11.0522 86.1772 11.1372 86.0743 11.2456C85.9722 11.354 85.8943 11.4831 85.8464 11.6243C85.7993 11.7654 85.7829 11.9151 85.7986 12.0632V14.6975H84.9072V10.1946Z" fill="white"></path><path d="M93.7786 9.07367V10.2153H94.7565V10.9638H93.7786V13.2792C93.7786 13.751 93.9736 13.9575 94.4172 13.9575C94.5307 13.9571 94.6436 13.9502 94.7565 13.937V14.6772C94.5965 14.7057 94.4343 14.721 94.2722 14.7226C93.2807 14.7226 92.8865 14.375 92.8865 13.5068V10.9638H92.1693V10.2152H92.8865V9.07367H93.7786Z" fill="white"></path><path d="M95.9736 8.43677H96.8571V10.9183H96.9279C97.0457 10.6589 97.2414 10.4423 97.4879 10.298C97.7343 10.1536 98.0193 10.0886 98.3043 10.1116C98.5229 10.0998 98.7414 10.1361 98.9443 10.2182C99.1471 10.3002 99.3293 10.4259 99.4779 10.5862C99.6264 10.7466 99.7379 10.9376 99.8036 11.1458C99.8693 11.3539 99.8886 11.574 99.8593 11.7903V14.6976H98.9671V12.0096C98.9671 11.2903 98.6314 10.9261 98.0021 10.9261C97.8486 10.9135 97.695 10.9345 97.5507 10.9876C97.4064 11.0406 97.2757 11.1244 97.1671 11.2332C97.0586 11.3419 96.9757 11.4729 96.9236 11.6171C96.8714 11.7612 96.8514 11.915 96.865 12.0676V14.6975H95.9736V8.43677Z" fill="white"></path><path d="M105.056 13.4815C104.935 13.8931 104.672 14.2491 104.315 14.4872C103.957 14.7254 103.526 14.8305 103.099 14.7842C102.801 14.7921 102.506 14.7353 102.233 14.6177C101.959 14.5002 101.715 14.3248 101.516 14.1036C101.319 13.8825 101.171 13.6209 101.084 13.3371C100.996 13.0533 100.973 12.754 101.014 12.4601C100.974 12.1651 100.998 11.8652 101.085 11.5806C101.171 11.2959 101.319 11.0331 101.516 10.81C101.714 10.5869 101.956 10.4088 102.229 10.2876C102.501 10.1664 102.797 10.1049 103.095 10.1075C104.351 10.1075 105.11 10.9635 105.11 12.3775V12.6876H101.921V12.7374C101.907 12.9026 101.928 13.0689 101.982 13.2257C102.036 13.3824 102.123 13.5261 102.236 13.6476C102.349 13.7691 102.487 13.8656 102.64 13.931C102.793 13.9964 102.957 14.0292 103.124 14.0274C103.337 14.0529 103.553 14.0146 103.744 13.9174C103.936 13.8202 104.094 13.6685 104.198 13.4815H105.056ZM101.921 12.0304H104.202C104.213 11.8792 104.192 11.7274 104.141 11.5847C104.09 11.442 104.01 11.3115 103.905 11.2016C103.801 11.0918 103.674 11.005 103.534 10.9468C103.394 10.8886 103.242 10.8604 103.09 10.8639C102.936 10.8619 102.784 10.8908 102.641 10.9487C102.498 11.0066 102.368 11.0925 102.259 11.2012C102.15 11.3099 102.064 11.4393 102.006 11.5817C101.948 11.7241 101.919 11.8766 101.921 12.0304Z" fill="white"></path></g></g><defs><clipPath id="clip0_12420_19057"><rect width="120" height="40" fill="white"></rect></clipPath></defs></svg>