<svg width="40" height="40" viewBox="0 0 40 40" fill="none" xmlns="http://www.w3.org/2000/svg">
<path d="M28 31H10C6.68629 31 4 28.3137 4 25V13C4 9.68629 6.68629 7 10 7H28C31.3137 7 34 9.68629 34 13V25C34 28.3137 31.3137 31 28 31Z" fill="white" stroke="#001FB9" stroke-width="2"/>
<path d="M4 12L15.6718 19.7812C17.6872 21.1248 20.3128 21.1248 22.3282 19.7812L34 12" stroke="#001FB9" stroke-width="2"/>
<path d="M33.9186 29.8459C33.9192 28.8978 34.6825 28.1288 35.6223 28.1294L35.6227 27.4423C35.6246 24.6941 34.944 24.0065 32.2201 24.0047L25.4101 24C22.6861 23.9981 22.0046 24.6847 22.0028 27.433L22.0025 27.7765C22.9423 27.7772 23.7045 28.5472 23.7039 29.4954C23.7032 30.4435 22.94 31.2125 22.0002 31.2118L22 31.5554C21.9981 34.3036 22.6787 34.9911 25.4027 34.9931L32.2126 34.9977C34.9366 34.9996 35.6181 34.313 35.6199 31.5647C34.6801 31.564 33.9179 30.7941 33.9186 29.8459Z" fill="#E5EEFE" stroke="#001FB9" stroke-width="2" stroke-linecap="round" stroke-linejoin="round"/>
<path d="M27.9786 24.0069L27.9712 35" stroke="#001FB9" stroke-width="2" stroke-linecap="round" stroke-linejoin="round" stroke-dasharray="3 4"/>
</svg>
