<svg width="40" height="40" viewBox="0 0 40 40" fill="none" xmlns="http://www.w3.org/2000/svg">
<path d="M12.9173 29.1089H18.584L24.8882 33.3023C25.8232 33.9256 27.084 33.2598 27.084 32.1264V29.1089C31.334 29.1089 34.1673 26.2756 34.1673 22.0256V13.5256C34.1673 9.27559 31.334 6.44226 27.084 6.44226H12.9173C8.66732 6.44226 5.83398 9.27559 5.83398 13.5256V22.0256C5.83398 26.2756 8.66732 29.1089 12.9173 29.1089Z" fill="white" stroke="#001FB9" stroke-width="2" stroke-linecap="round" stroke-linejoin="round"/>
<path d="M22 15H25.75M22 19H28" stroke="#001FB9" stroke-width="2" stroke-linecap="round" stroke-linejoin="round"/>
<path d="M15.3014 18.8935V18.6279C15.3014 17.7676 15.8328 17.3121 16.3642 16.9451C16.883 16.5909 17.4016 16.1354 17.4016 15.3004C17.4016 14.1364 16.4654 13.2001 15.3014 13.2001C14.1374 13.2001 13.2012 14.1364 13.2012 15.3004" stroke="#001FB9" stroke-width="2" stroke-miterlimit="10" stroke-linecap="round" stroke-linejoin="round"/>
<path d="M15.2968 21.9174H15.3082" stroke="#001FB9" stroke-width="2" stroke-miterlimit="10" stroke-linecap="round" stroke-linejoin="round"/>
</svg>
