<svg width="40" height="40" viewBox="0 0 40 40" fill="none" xmlns="http://www.w3.org/2000/svg">
<path d="M33.8881 20.0001C33.8881 27.6668 27.6659 33.889 19.9992 33.889C12.3326 33.889 7.65202 26.1668 7.65202 26.1668M7.65202 26.1668H10.7909H12.3604M7.65202 26.1668V29.639V31.3751M6.11035 20.0001C6.11035 12.3334 12.277 6.11121 19.9992 6.11121C29.2631 6.11121 33.8881 13.8334 33.8881 13.8334M33.8881 13.8334H30.8048H29.2631M33.8881 13.8334V10.3612V8.6251" stroke="#001FB9" stroke-width="2" stroke-linecap="round" stroke-linejoin="round"/>
<path d="M13.0547 20.6112V19.389C13.0547 18.6668 13.645 18.0696 14.3741 18.0696C15.6311 18.0696 16.145 17.1807 15.513 16.0904C15.1519 15.4654 15.3672 14.6529 15.9991 14.2918L17.2005 13.6043C17.7491 13.2779 18.4575 13.4723 18.7839 14.021L18.8602 14.1529C19.4852 15.2432 20.513 15.2432 21.145 14.1529L21.2214 14.021C21.5477 13.4723 22.2561 13.2779 22.8047 13.6043L24.0061 14.2918C24.638 14.6529 24.8533 15.4654 24.4922 16.0904C23.8602 17.1807 24.3741 18.0696 25.6311 18.0696C26.3533 18.0696 26.9505 18.6598 26.9505 19.389V20.6112C26.9505 21.3335 26.3602 21.9307 25.6311 21.9307C24.3741 21.9307 23.8602 22.8196 24.4922 23.9098C24.8533 24.5418 24.638 25.3473 24.0061 25.7085L22.8047 26.396C22.2561 26.7223 21.5477 26.5279 21.2214 25.9793L21.145 25.8473C20.52 24.7571 19.4922 24.7571 18.8602 25.8473L18.7839 25.9793C18.4575 26.5279 17.7491 26.7223 17.2005 26.396L15.9991 25.7085C15.3672 25.3473 15.1519 24.5348 15.513 23.9098C16.145 22.8196 15.6311 21.9307 14.3741 21.9307C13.645 21.9307 13.0547 21.3335 13.0547 20.6112Z" fill="#E5EEFE" stroke="#001FB9" stroke-width="1.75" stroke-miterlimit="10" stroke-linecap="round" stroke-linejoin="round"/>
<path d="M19.9997 21.6667C20.9201 21.6667 21.6663 20.9205 21.6663 20C21.6663 19.0796 20.9201 18.3334 19.9997 18.3334C19.0792 18.3334 18.333 19.0796 18.333 20C18.333 20.9205 19.0792 21.6667 19.9997 21.6667Z" stroke="#001FB9" stroke-width="1.5" stroke-miterlimit="10" stroke-linecap="round" stroke-linejoin="round"/>
</svg>
