<svg width="40" height="40" viewBox="0 0 40 40" fill="none" xmlns="http://www.w3.org/2000/svg">
<path d="M4.5 7V36.5H16.5V6H5.5C4.94772 6 4.5 6.44772 4.5 7Z" fill="#80A0F1" stroke="#001FB9" stroke-linecap="round"/>
<path d="M12.5 14.5H8.5C7.94772 14.5 7.5 14.9477 7.5 15.5V18.5C7.5 19.0523 7.94772 19.5 8.5 19.5H12.5C13.0523 19.5 13.5 19.0523 13.5 18.5V15.5C13.5 14.9477 13.0523 14.5 12.5 14.5Z" fill="white" stroke="#001FB9" stroke-linecap="round"/>
<path d="M12.5 24.5H8.5C7.94772 24.5 7.5 24.9477 7.5 25.5V36.5H13.5V25.5C13.5 24.9477 13.0523 24.5 12.5 24.5Z" fill="white" stroke="#001FB9" stroke-linecap="round"/>
<path d="M16.5 10.5H3.5C2.94772 10.5 2.5 10.0523 2.5 9.5C2.5 8.94772 2.94772 8.5 3.5 8.5H16.5V10.5Z" fill="#4C6FE4" stroke="#001FB9" stroke-linecap="round"/>
<path d="M33.125 22L33.125 36.375" stroke="#001FB9" stroke-linecap="round"/>
<path d="M36 28L36 28.1194C36 30.0537 35.0697 31.8699 33.5 33V33" stroke="#001FB9" stroke-linecap="round"/>
<path d="M30.5 28.5V28.5C30.5 29.8736 31.2737 31.13 32.5003 31.7482L33 32" stroke="#001FB9" stroke-linecap="round"/>
<rect x="31" y="16" width="4" height="6" rx="2" fill="#8BD48B" stroke="#8BD48B"/>
<rect x="35" y="23" width="2.5" height="5" rx="1.25" fill="#8BD48B" stroke="#8BD48B"/>
<rect x="29.5" y="25" width="2" height="3.5" rx="1" fill="#8BD48B" stroke="#8BD48B"/>
<path d="M25.875 3L18.625 3C17.5204 3 16.625 3.89543 16.625 5L16.625 36.375L27.875 36.375L27.875 5C27.875 3.89543 26.9796 3 25.875 3Z" fill="#4C6FE4" stroke="#001FB9" stroke-linecap="round"/>
<path d="M20.375 3.18742V36.3749" stroke="#001FB9" stroke-linecap="round"/>
<path d="M24.125 3.18742V36.3749" stroke="#001FB9" stroke-linecap="round"/>
<path d="M2 36.4929H38" stroke="#001FB9" stroke-linecap="round"/>
</svg>
